Recursive Mono-Gothic B Italic.ufo
<glyph name="three" format="2">
  <advance width="600"/>
  <unicode hex="0033"/>
  <guideline x="-68.0" y="0" angle="75.96000000000001" identifier="v99TA6Z59T"/>
  <guideline x="-18.0" y="0" angle="75.96000000000001" identifier="2Y4GaFKbz7"/>
  <guideline x="32.0" y="0" angle="75.96000000000001" identifier="JYjsLZACuQ"/>
  <guideline x="82.0" y="0" angle="75.96000000000001" identifier="AhWvOeeAOp"/>
  <guideline x="132.0" y="0" angle="75.96000000000001" identifier="sPJuZOpZsP"/>
  <guideline x="182.0" y="0" angle="75.96000000000001" identifier="ClGMw5URwL"/>
  <guideline x="232.0" y="0" angle="75.96000000000001" identifier="Bx3JRbPoFI"/>
  <guideline x="282.0" y="0" angle="75.96000000000001" identifier="38KO956y9L"/>
  <guideline x="332.0" y="0" angle="75.96000000000001" identifier="f8gqj1SEYZ"/>
  <guideline x="382.0" y="0" angle="75.96000000000001" identifier="ImM07c0xMM"/>
  <guideline x="432.0" y="0" angle="75.96000000000001" identifier="BYtjmElVle"/>
  <guideline x="482.0" y="0" angle="75.96000000000001" identifier="msdyhRgml1"/>
  <guideline x="532.0" y="0" angle="75.96000000000001" identifier="XICxIPpJny"/>
  <guideline x="-68.0" y="-250" angle="0" identifier="06T2BeSi9i"/>
  <guideline x="-68.0" y="-200" angle="0" identifier="YK0AazSCti"/>
  <guideline x="-68.0" y="-150" angle="0" identifier="lGoyHPAaUo"/>
  <guideline x="-68.0" y="-100" angle="0" identifier="GnxNZnRKAD"/>
  <guideline x="-68.0" y="-50" angle="0" identifier="VwVFgKLuaf"/>
  <guideline x="-68.0" y="0" angle="0" identifier="tDHIDo8s1f"/>
  <guideline x="-68.0" y="50" angle="0" identifier="WKFJhcll15"/>
  <guideline x="-68.0" y="100" angle="0" identifier="ZMLvLToleS"/>
  <guideline x="-68.0" y="150" angle="0" identifier="OTvidMqt44"/>
  <guideline x="-68.0" y="200" angle="0" identifier="H2enw6hTYz"/>
  <guideline x="-68.0" y="250" angle="0" identifier="Ceu1eOAZiq"/>
  <guideline x="-68.0" y="300" angle="0" identifier="5BAxOTEeji"/>
  <guideline x="-68.0" y="350" angle="0" identifier="FApKscCZZE"/>
  <guideline x="-68.0" y="400" angle="0" identifier="nYBy5h8AMQ"/>
  <guideline x="-68.0" y="450" angle="0" identifier="Ep0JRRQy84"/>
  <guideline x="-68.0" y="500" angle="0" identifier="ocHHwPxew0"/>
  <guideline x="-68.0" y="550" angle="0" identifier="dwGIQg6DEI"/>
  <guideline x="-68.0" y="600" angle="0" identifier="SOojXg9zeR"/>
  <guideline x="-68.0" y="650" angle="0" identifier="qctAFh6lUf"/>
  <guideline x="-68.0" y="700" angle="0" identifier="qZlyPwC35B"/>
  <outline>
    <contour>
      <point x="351" y="575" type="curve" smooth="yes"/>
      <point x="445" y="575"/>
      <point x="459" y="545"/>
      <point x="450" y="510" type="curve" smooth="yes"/>
      <point x="443" y="483"/>
      <point x="440" y="471"/>
      <point x="435" y="450" type="curve"/>
      <point x="513" y="450"/>
      <point x="585" y="456"/>
      <point x="600" y="515" type="curve"/>
      <point x="607" y="542" type="line" smooth="yes"/>
      <point x="633" y="644"/>
      <point x="543" y="720"/>
      <point x="398" y="720" type="curve" smooth="yes"/>
      <point x="291" y="720"/>
      <point x="193" y="698"/>
      <point x="179" y="687" type="curve" smooth="yes"/>
      <point x="177" y="685"/>
      <point x="176" y="683"/>
      <point x="175" y="680" type="curve" smooth="yes"/>
      <point x="163" y="629"/>
      <point x="151" y="584"/>
      <point x="143" y="550" type="curve"/>
      <point x="163" y="550" type="line"/>
      <point x="225" y="567"/>
      <point x="270" y="575"/>
    </contour>
    <contour>
      <point x="178" y="338" type="curve" smooth="yes"/>
      <point x="400" y="338"/>
      <point x="562" y="363"/>
      <point x="600" y="515" type="curve" smooth="yes"/>
      <point x="607" y="543"/>
      <point x="538" y="585"/>
      <point x="469" y="585" type="curve"/>
      <point x="462" y="560"/>
      <point x="456" y="535"/>
      <point x="450" y="510" type="curve" smooth="yes"/>
      <point x="437" y="459"/>
      <point x="408" y="425"/>
      <point x="189" y="425" type="curve"/>
      <point x="183" y="404"/>
      <point x="175" y="370"/>
      <point x="170" y="349" type="curve" smooth="yes"/>
      <point x="168" y="343"/>
      <point x="172" y="338"/>
    </contour>
    <contour>
      <point x="166" y="291" type="curve" smooth="yes"/>
      <point x="365" y="291"/>
      <point x="397" y="260"/>
      <point x="384" y="205" type="curve" smooth="yes"/>
      <point x="377" y="180"/>
      <point x="375" y="171"/>
      <point x="366" y="135" type="curve"/>
      <point x="460" y="135"/>
      <point x="518" y="147"/>
      <point x="532" y="202" type="curve" smooth="yes"/>
      <point x="565" y="336"/>
      <point x="413" y="381"/>
      <point x="178" y="381" type="curve"/>
      <point x="171" y="355"/>
      <point x="164" y="325"/>
      <point x="158" y="302" type="curve" smooth="yes"/>
      <point x="156" y="294"/>
      <point x="159" y="291"/>
    </contour>
    <contour>
      <point x="232" y="125" type="curve" smooth="yes"/>
      <point x="148" y="125"/>
      <point x="106" y="133"/>
      <point x="44" y="155" type="curve"/>
      <point x="24" y="155" type="line"/>
      <point x="14" y="116"/>
      <point x="4" y="76"/>
      <point x="-9" y="25" type="curve" smooth="yes"/>
      <point x="-10" y="22"/>
      <point x="-10" y="20"/>
      <point x="-9" y="18" type="curve" smooth="yes"/>
      <point x="0" y="6"/>
      <point x="91" y="-20"/>
      <point x="210" y="-20" type="curve" smooth="yes"/>
      <point x="377" y="-20"/>
      <point x="490" y="37"/>
      <point x="523" y="167" type="curve" smooth="yes"/>
      <point x="532" y="202" type="line" smooth="yes"/>
      <point x="544" y="249"/>
      <point x="480" y="272"/>
      <point x="400" y="271" type="curve"/>
      <point x="394" y="246"/>
      <point x="390" y="232"/>
      <point x="383" y="205" type="curve" smooth="yes"/>
      <point x="373" y="162"/>
      <point x="340" y="125"/>
    </contour>
  </outline>
</glyph>
<glyph name="five" format="2">
  <advance width="600"/>
  <unicode hex="0035"/>
  <guideline x="-68.0" y="0" angle="75.96000000000001" identifier="FbU2MJEe00"/>
  <guideline x="-18.0" y="0" angle="75.96000000000001" identifier="HW5cTN93lh"/>
  <guideline x="32.0" y="0" angle="75.96000000000001" identifier="60EAiwnB3J"/>
  <guideline x="82.0" y="0" angle="75.96000000000001" identifier="WN9Y6jZKl3"/>
  <guideline x="132.0" y="0" angle="75.96000000000001" identifier="LF57eRYpY3"/>
  <guideline x="182.0" y="0" angle="75.96000000000001" identifier="qhpRlt1q3n"/>
  <guideline x="232.0" y="0" angle="75.96000000000001" identifier="N8GKByWq6R"/>
  <guideline x="282.0" y="0" angle="75.96000000000001" identifier="pthubpmw5t"/>
  <guideline x="332.0" y="0" angle="75.96000000000001" identifier="0YrJPkD0rC"/>
  <guideline x="382.0" y="0" angle="75.96000000000001" identifier="zK96YdHWMz"/>
  <guideline x="432.0" y="0" angle="75.96000000000001" identifier="PH0Va6uu00"/>
  <guideline x="482.0" y="0" angle="75.96000000000001" identifier="WUUUA8DECH"/>
  <guideline x="532.0" y="0" angle="75.96000000000001" identifier="dqkkzyV2B0"/>
  <guideline x="-68.0" y="-250" angle="0" identifier="I6LIwKObQI"/>
  <guideline x="-68.0" y="-200" angle="0" identifier="6gz0fDdGtx"/>
  <guideline x="-68.0" y="-150" angle="0" identifier="Wc9Om6PwPV"/>
  <guideline x="-68.0" y="-100" angle="0" identifier="mof7bHPBxN"/>
  <guideline x="-68.0" y="-50" angle="0" identifier="cX1LaqbvNx"/>
  <guideline x="-68.0" y="0" angle="0" identifier="LrlHcuzL6K"/>
  <guideline x="-68.0" y="50" angle="0" identifier="KjuezTWT7j"/>
  <guideline x="-68.0" y="100" angle="0" identifier="WYK6d6Xxph"/>
  <guideline x="-68.0" y="150" angle="0" identifier="RcpbUNpn9X"/>
  <guideline x="-68.0" y="200" angle="0" identifier="eCnpmNuqbL"/>
  <guideline x="-68.0" y="250" angle="0" identifier="WXFRYENlQf"/>
  <guideline x="-68.0" y="300" angle="0" identifier="CZ5vz4BDtk"/>
  <guideline x="-68.0" y="350" angle="0" identifier="FPUwzlgi2F"/>
  <guideline x="-68.0" y="400" angle="0" identifier="Qw6pCFsSS1"/>
  <guideline x="-68.0" y="450" angle="0" identifier="mNbRY1pwF3"/>
  <guideline x="-68.0" y="500" angle="0" identifier="TSBuwUKakm"/>
  <guideline x="-68.0" y="550" angle="0" identifier="POtOnpdYSV"/>
  <guideline x="-68.0" y="600" angle="0" identifier="bzgJ0tgKAS"/>
  <guideline x="-68.0" y="650" angle="0" identifier="XdO2rGEJyX"/>
  <guideline x="-68.0" y="700" angle="0" identifier="PyfCnC4qiS"/>
  <outline>
    <contour>
      <point x="262.04876391513005" y="700.0" type="line"/>
      <point x="250.54555942927868" y="654.0"/>
      <point x="242.04319089625807" y="620.0"/>
      <point x="230.53998641040664" y="574.0" type="curve" smooth="yes"/>
      <point x="229.78977742219894" y="571.0"/>
      <point x="230.03956843399123" y="568.0"/>
      <point x="231.53942910851947" y="566.0" type="curve" smooth="yes"/>
      <point x="233.03928978304765" y="564.0"/>
      <point x="235.7892201203117" y="563.0"/>
      <point x="238.7892201203117" y="563.0" type="curve" smooth="yes"/>
      <point x="592.7892201203117" y="563.0" type="line"/>
      <point x="600.2913100023887" y="593.0"/>
      <point x="610.7942358372966" y="635.0"/>
      <point x="624.2979976250351" y="689.0" type="curve" smooth="yes"/>
      <point x="625.7984156014505" y="695.0"/>
      <point x="622.04876391513" y="700.0"/>
      <point x="616.04876391513" y="700.0" type="curve" smooth="yes"/>
    </contour>
    <contour>
      <point x="230.27041118161873" y="293.0" type="line"/>
      <point x="368.04709200946843" y="676.0" type="line" smooth="yes"/>
      <point x="373.798136950507" y="691.0"/>
      <point x="353.4171849677616" y="700.0"/>
      <point x="276.04876391513005" y="700.0" type="curve" smooth="yes"/>
      <point x="226.04876391513005" y="700.0" type="line"/>
      <point x="91.27180443633671" y="313.0" type="line" smooth="yes"/>
      <point x="87.27096848350592" y="301.0"/>
      <point x="86.27041118161873" y="293.0"/>
      <point x="98.27041118161873" y="293.0" type="curve" smooth="yes"/>
    </contour>
    <contour>
      <point x="223.27570554954713" y="369.0" type="curve"/>
      <point x="185.02340667926245" y="336.0"/>
      <point x="191.27041118161873" y="293.0"/>
      <point x="230.27041118161873" y="293.0" type="curve"/>
      <point x="256.4895572240624" y="304.7923498748525"/>
      <point x="290.0220134245444" y="316.0"/>
      <point x="324.0220134245444" y="316.0" type="curve" smooth="yes"/>
      <point x="392.0220134245444" y="316.0"/>
      <point x="397" y="262.0"/>
      <point x="387" y="220.0" type="curve" smooth="yes"/>
      <point x="383" y="205.0"/>
      <point x="380" y="193"/>
      <point x="375" y="174.0" type="curve"/>
      <point x="421" y="174.0"/>
      <point x="529" y="186"/>
      <point x="539" y="228.0" type="curve" smooth="yes"/>
      <point x="571" y="356.0"/>
      <point x="507.5305122783243" y="438.0"/>
      <point x="405.53051227832424" y="438.0" type="curve" smooth="yes"/>
      <point x="322.53051227832424" y="438.0"/>
      <point x="268.52856172171903" y="410.0"/>
    </contour>
    <contour>
      <point x="216" y="-20.0" type="curve" smooth="yes"/>
      <point x="401.0" y="-20.0"/>
      <point x="497" y="59"/>
      <point x="529" y="188.0" type="curve" smooth="yes"/>
      <point x="539" y="228.0" type="line" smooth="yes"/>
      <point x="551" y="277"/>
      <point x="480" y="321.0"/>
      <point x="407" y="300.0" type="curve"/>
      <point x="400" y="270.0"/>
      <point x="394" y="248"/>
      <point x="387" y="220.0" type="curve" smooth="yes"/>
      <point x="382" y="200.0" type="line" smooth="yes"/>
      <point x="370" y="152"/>
      <point x="328.25870784198753" y="125.0"/>
      <point x="235.25870784198753" y="125.0" type="curve" smooth="yes"/>
      <point x="155.2587078419875" y="125.0"/>
      <point x="115.2592651438747" y="133.0"/>
      <point x="63.7607977240645" y="155.0" type="curve"/>
      <point x="43.76079772406452" y="155.0" type="line"/>
      <point x="33.75801121462851" y="115.0"/>
      <point x="23.25508537972071" y="73.0"/>
      <point x="10.001393254717996" y="20.0" type="curve" smooth="yes"/>
      <point x="9.251184266510307" y="17.0"/>
      <point x="8.7510449410385" y="15.0"/>
      <point x="10.250905615566694" y="13.0" type="curve" smooth="yes"/>
      <point x="18.500139325471807" y="2.0"/>
      <point x="102" y="-20"/>
    </contour>
  </outline>
</glyph>
<glyph name="eight" format="2">
  <advance width="600"/>
  <unicode hex="0038"/>
  <outline>
    <contour>
      <point x="418" y="375" type="curve" smooth="yes"/>
      <point x="301" y="421" type="line" smooth="yes"/>
      <point x="270" y="433"/>
      <point x="258" y="465"/>
      <point x="267" y="498" type="curve" smooth="yes"/>
      <point x="272" y="519"/>
      <point x="278" y="544"/>
      <point x="286" y="577" type="curve"/>
      <point x="210" y="576"/>
      <point x="141" y="557"/>
      <point x="127" y="500" type="curve" smooth="yes"/>
      <point x="103" y="405"/>
      <point x="135" y="358"/>
      <point x="243" y="314" type="curve" smooth="yes"/>
      <point x="352" y="269" type="line" smooth="yes"/>
      <point x="393" y="252"/>
      <point x="400" y="232"/>
      <point x="391" y="194" type="curve" smooth="yes"/>
      <point x="378" y="144"/>
      <point x="375" y="132"/>
      <point x="368" y="105" type="curve"/>
      <point x="447" y="105"/>
      <point x="516" y="137"/>
      <point x="532" y="200" type="curve" smooth="yes"/>
      <point x="555" y="291"/>
      <point x="519" y="335"/>
    </contour>
    <contour>
      <point x="226" y="-20" type="curve" smooth="yes"/>
      <point x="382" y="-20"/>
      <point x="498" y="64"/>
      <point x="522" y="160" type="curve" smooth="yes"/>
      <point x="532" y="200" type="line" smooth="yes"/>
      <point x="543" y="243"/>
      <point x="490" y="263"/>
      <point x="408" y="265" type="curve"/>
      <point x="407" y="260"/>
      <point x="399" y="228"/>
      <point x="388" y="184" type="curve" smooth="yes"/>
      <point x="379" y="146"/>
      <point x="337" y="115"/>
      <point x="260" y="115" type="curve" smooth="yes"/>
      <point x="199" y="115"/>
      <point x="174" y="115"/>
      <point x="138" y="115" type="curve"/>
      <point x="120" y="44"/>
      <point x="156" y="-20"/>
    </contour>
    <contour>
      <point x="412" y="720" type="curve" smooth="yes"/>
      <point x="270" y="720"/>
      <point x="161" y="636"/>
      <point x="135" y="530" type="curve" smooth="yes"/>
      <point x="127" y="500" type="line" smooth="yes"/>
      <point x="117" y="458"/>
      <point x="150" y="430"/>
      <point x="250" y="430" type="curve"/>
      <point x="254" y="448"/>
      <point x="260" y="471"/>
      <point x="270" y="513" type="curve" smooth="yes"/>
      <point x="280" y="552"/>
      <point x="316" y="585"/>
      <point x="380" y="585" type="curve" smooth="yes"/>
      <point x="452" y="585"/>
      <point x="469" y="585"/>
      <point x="502" y="585" type="curve"/>
      <point x="524" y="672"/>
      <point x="485" y="720"/>
    </contour>
    <contour>
      <point x="409" y="349" type="curve" smooth="yes"/>
      <point x="465" y="349"/>
      <point x="567" y="423"/>
      <point x="586" y="500" type="curve" smooth="yes"/>
      <point x="594" y="530" type="line" smooth="yes"/>
      <point x="621" y="638"/>
      <point x="552" y="720"/>
      <point x="412" y="720" type="curve" smooth="yes"/>
      <point x="390" y="720"/>
      <point x="383" y="712"/>
      <point x="380" y="585" type="curve"/>
      <point x="447" y="585"/>
      <point x="460" y="556"/>
      <point x="449" y="513" type="curve" smooth="yes"/>
      <point x="446" y="498" type="line" smooth="yes"/>
      <point x="436" y="458"/>
      <point x="409" y="414"/>
      <point x="322" y="393" type="curve"/>
      <point x="341" y="366"/>
      <point x="374" y="349"/>
    </contour>
    <contour>
      <point x="260" y="115" type="curve"/>
      <point x="186" y="115"/>
      <point x="158" y="144"/>
      <point x="168" y="184" type="curve" smooth="yes"/>
      <point x="171" y="194" type="line" smooth="yes"/>
      <point x="181" y="234"/>
      <point x="217" y="285"/>
      <point x="322" y="304" type="curve"/>
      <point x="302" y="334"/>
      <point x="284" y="348"/>
      <point x="222" y="348" type="curve" smooth="yes"/>
      <point x="160" y="348"/>
      <point x="53" y="282"/>
      <point x="32" y="200" type="curve" smooth="yes"/>
      <point x="22" y="160" type="line" smooth="yes"/>
      <point x="-5" y="51"/>
      <point x="75" y="-20"/>
      <point x="226" y="-20" type="curve" smooth="yes"/>
      <point x="242" y="-20"/>
      <point x="273" y="7"/>
    </contour>
  </outline>
</glyph>
<glyph name="H" format="2">
  <advance width="600"/>
  <unicode hex="0048"/>
  <outline>
    <contour>
      <point x="160" y="700.0" type="curve"/>
      <point x="151" y="664.0"/>
      <point x="142" y="629.0"/>
      <point x="133" y="593.0" type="curve" smooth="yes"/>
      <point x="-17" y="11.0" type="line" smooth="yes"/>
      <point x="-19" y="5.0"/>
      <point x="-15" y="0.0"/>
      <point x="-9" y="0.0" type="curve" smooth="yes"/>
      <point x="41" y="0.0"/>
      <point x="90" y="0.0"/>
      <point x="140" y="0.0" type="curve"/>
      <point x="317" y="689.0" type="line" smooth="yes"/>
      <point x="318" y="692.0"/>
      <point x="318" y="695.0"/>
      <point x="316" y="697.0" type="curve" smooth="yes"/>
      <point x="315" y="699.0"/>
      <point x="312" y="700.0"/>
      <point x="309" y="700.0" type="curve" smooth="yes"/>
      <point x="259" y="700.0"/>
      <point x="210" y="700.0"/>
    </contour>
    <contour>
      <point x="440" y="0.0" type="curve"/>
      <point x="448" y="32.0"/>
      <point x="458" y="70.0"/>
      <point x="468" y="110.0" type="curve" smooth="yes"/>
      <point x="617" y="689.0" type="line" smooth="yes"/>
      <point x="619" y="695.0"/>
      <point x="615" y="700.0"/>
      <point x="609" y="700.0" type="curve" smooth="yes"/>
      <point x="559" y="700.0"/>
      <point x="510" y="700.0"/>
      <point x="460" y="700.0" type="curve"/>
      <point x="283" y="11.0" type="line" smooth="yes"/>
      <point x="282" y="8.0"/>
      <point x="282" y="5.0"/>
      <point x="284" y="3.0" type="curve" smooth="yes"/>
      <point x="285" y="1.0"/>
      <point x="288" y="0.0"/>
      <point x="291" y="0.0" type="curve" smooth="yes"/>
      <point x="341" y="0.0"/>
      <point x="390" y="0.0"/>
    </contour>
    <contour>
      <point x="153" y="420.0" type="line"/>
      <point x="119" y="289.0" type="line" smooth="yes"/>
      <point x="119" y="286.0"/>
      <point x="119" y="283.0"/>
      <point x="120" y="281.0" type="curve" smooth="yes"/>
      <point x="122" y="279.0"/>
      <point x="124" y="278.0"/>
      <point x="127" y="278.0" type="curve"/>
      <point x="441" y="278.0" type="line"/>
      <point x="478" y="421.0"/>
      <point x="473" y="420.0"/>
      <point x="467" y="420.0" type="curve"/>
    </contour>
  </outline>
</glyph>
<glyph name="R" format="2">
  <advance width="600"/>
  <unicode hex="0052"/>
  <anchor x="407.799530205225" y="711" name="top"/>
  <anchor x="229.74993033726412" y="-1" name="bottom"/>
  <outline>
    <contour>
      <point x="161.0" y="0.0" type="curve"/>
      <point x="169" y="33.0"/>
      <point x="178" y="67.0"/>
      <point x="186" y="100.0" type="curve" smooth="yes"/>
      <point x="321" y="639.0" type="line" smooth="yes"/>
      <point x="322" y="645.0"/>
      <point x="319" y="650.0"/>
      <point x="169" y="650.0" type="curve"/>
      <point x="9" y="11.0" type="line"/>
      <point x="8" y="8.0"/>
      <point x="8" y="5.0"/>
      <point x="10" y="3.0" type="curve" smooth="yes"/>
      <point x="11" y="1.0"/>
      <point x="14.0" y="0.0"/>
      <point x="17.0" y="0.0" type="curve"/>
      <point x="65" y="0.0"/>
      <point x="113" y="0.0"/>
    </contour>
    <contour>
      <point x="146" y="700.0" type="curve"/>
      <point x="135" y="656"/>
      <point x="126" y="618"/>
      <point x="115" y="574.0" type="curve" smooth="yes"/>
      <point x="114" y="571.0"/>
      <point x="114" y="568.0"/>
      <point x="116" y="566.0" type="curve" smooth="yes"/>
      <point x="117" y="564.0"/>
      <point x="120" y="563.0"/>
      <point x="123" y="563.0" type="curve" smooth="yes"/>
      <point x="143" y="563.0"/>
      <point x="165" y="563.0"/>
      <point x="187" y="563.0" type="curve" smooth="yes"/>
      <point x="252" y="563.0"/>
      <point x="324" y="563.0"/>
      <point x="379" y="563.0" type="curve" smooth="yes"/>
      <point x="430" y="563.0"/>
      <point x="456" y="563.0"/>
      <point x="484" y="563.0" type="curve"/>
      <point x="504" y="644"/>
      <point x="467" y="700.0"/>
      <point x="400" y="700.0" type="curve" smooth="yes"/>
      <point x="328" y="700.0"/>
      <point x="219" y="700.0"/>
    </contour>
    <contour>
      <point x="568" y="409" type="curve" smooth="yes"/>
      <point x="585" y="473" type="line" smooth="yes"/>
      <point x="619" y="611"/>
      <point x="568" y="700.0"/>
      <point x="400" y="700.0" type="curve" smooth="yes"/>
      <point x="397" y="700.0"/>
      <point x="384" y="685"/>
      <point x="379" y="563.0" type="curve"/>
      <point x="427" y="563.0"/>
      <point x="443" y="541.0"/>
      <point x="432" y="495.0" type="curve" smooth="yes"/>
      <point x="415" y="426.0" type="line" smooth="yes"/>
      <point x="403" y="381.0"/>
      <point x="376" y="360.0"/>
      <point x="328" y="360.0" type="curve" smooth="yes"/>
      <point x="311" y="360.0"/>
      <point x="239" y="360.0"/>
      <point x="206" y="360.0" type="curve"/>
      <point x="196" y="319"/>
      <point x="189" y="294"/>
      <point x="177" y="244.0" type="curve" smooth="yes"/>
      <point x="176" y="238.0"/>
      <point x="179" y="233.0"/>
      <point x="185" y="233.0" type="curve" smooth="yes"/>
      <point x="318" y="233.0" type="line" smooth="yes"/>
      <point x="446" y="233.0"/>
      <point x="535" y="275"/>
    </contour>
    <contour>
      <point x="412" y="332.0" type="line"/>
      <point x="283" y="286.0"/>
      <point x="282" y="274"/>
      <point x="289" y="251.0" type="curve" smooth="yes"/>
      <point x="345" y="65.0" type="line" smooth="yes"/>
      <point x="362" y="7"/>
      <point x="389.0" y="-10"/>
      <point x="463" y="-10.0" type="curve" smooth="yes"/>
      <point x="477" y="-10.0" type="line" smooth="yes"/>
      <point x="484" y="-10"/>
      <point x="489" y="-6.0"/>
      <point x="491" y="1.0" type="curve" smooth="yes"/>
      <point x="502" y="45"/>
      <point x="514" y="91"/>
      <point x="525" y="135.0" type="curve"/>
      <point x="520" y="135.0" type="line"/>
      <point x="515" y="135.0"/>
      <point x="512" y="135.0"/>
      <point x="507" y="135.0" type="curve"/>
      <point x="477" y="135.0"/>
      <point x="471" y="141"/>
      <point x="462" y="169.0" type="curve" smooth="yes"/>
    </contour>
  </outline>
</glyph>
<glyph name="X" format="2">
  <advance width="600"/>
  <unicode hex="0058"/>
  <outline>
    <contour>
      <point x="368.0" y="0.0" type="curve" smooth="yes"/>
      <point x="418.0" y="0.0"/>
      <point x="456.0" y="0.0"/>
      <point x="507.0" y="0.0" type="curve"/>
      <point x="471" y="128.0"/>
      <point x="436" y="257.0"/>
      <point x="400" y="385.0" type="curve" smooth="yes"/>
      <point x="393" y="411.0"/>
      <point x="366" y="423.0"/>
      <point x="360" y="446.0" type="curve" smooth="yes"/>
      <point x="337" y="527.0"/>
      <point x="315" y="609.0"/>
      <point x="294" y="690.0" type="curve" smooth="yes"/>
      <point x="291" y="697.0"/>
      <point x="286.0" y="700.0"/>
      <point x="277" y="700.0" type="curve" smooth="yes"/>
      <point x="138" y="700.0" type="line"/>
      <point x="173" y="573.0"/>
      <point x="209" y="446.0"/>
      <point x="244" y="319.0" type="curve" smooth="yes"/>
      <point x="250" y="295.0"/>
      <point x="282" y="278.0"/>
      <point x="288" y="254.0" type="curve" smooth="yes"/>
      <point x="309" y="173.0"/>
      <point x="330" y="91.0"/>
      <point x="352" y="10.0" type="curve" smooth="yes"/>
      <point x="354" y="2.0"/>
      <point x="360.0" y="0.0"/>
    </contour>
    <contour>
      <point x="682" y="700.0" type="curve" smooth="yes"/>
      <point x="524" y="700.0" type="line"/>
      <point x="445" y="595.0"/>
      <point x="366" y="490.0"/>
      <point x="286" y="384.0" type="curve" smooth="yes"/>
      <point x="274" y="368.0"/>
      <point x="286" y="355.0"/>
      <point x="381" y="305.0" type="curve"/>
      <point x="483" y="430.0"/>
      <point x="585" y="556.0"/>
      <point x="686" y="681.0" type="curve" smooth="yes"/>
      <point x="691" y="687.0"/>
      <point x="693" y="693.0"/>
      <point x="691" y="696.0" type="curve" smooth="yes"/>
      <point x="690" y="699.0"/>
      <point x="686" y="700"/>
    </contour>
    <contour>
      <point x="-38.0" y="0.0" type="curve" smooth="yes"/>
      <point x="132.0" y="0.0" type="line"/>
      <point x="211" y="106.0"/>
      <point x="289" y="211.0"/>
      <point x="368" y="317.0" type="curve" smooth="yes"/>
      <point x="379" y="331.0"/>
      <point x="356" y="346.0"/>
      <point x="263" y="395.0" type="curve"/>
      <point x="162" y="270.0"/>
      <point x="59" y="144.0"/>
      <point x="-42" y="19.0" type="curve" smooth="yes"/>
      <point x="-47" y="13.0"/>
      <point x="-49" y="7.0"/>
      <point x="-46" y="3.0" type="curve" smooth="yes"/>
      <point x="-45" y="1.0"/>
      <point x="-42" y="0"/>
    </contour>
  </outline>
</glyph>
<glyph name="a" format="2">
  <advance width="600"/>
  <unicode hex="0061"/>
  <anchor x="369.78838416748096" y="551" name="top"/>
  <anchor x="241.74993033726412" y="-1" name="bottom"/>
  <anchor x="488.24923370990507" y="-1" name="ogonek"/>
  <outline>
    <contour>
      <point x="326" y="550" type="curve" smooth="yes"/>
      <point x="262" y="550"/>
      <point x="165" y="536"/>
      <point x="147" y="522" type="curve" smooth="yes"/>
      <point x="144" y="520"/>
      <point x="143" y="517"/>
      <point x="142" y="514" type="curve" smooth="yes"/>
      <point x="132" y="473"/>
      <point x="123" y="436"/>
      <point x="112" y="395" type="curve"/>
      <point x="132" y="395" type="line"/>
      <point x="187" y="409"/>
      <point x="238" y="415"/>
      <point x="295" y="415" type="curve" smooth="yes"/>
      <point x="386" y="415"/>
      <point x="424" y="381"/>
      <point x="402" y="310" type="curve"/>
      <point x="466" y="301"/>
      <point x="518" y="289"/>
      <point x="528" y="324" type="curve"/>
      <point x="564" y="472"/>
      <point x="497" y="550"/>
    </contour>
    <contour>
      <point x="382" y="428" type="curve"/>
      <point x="388" y="405"/>
      <point x="387" y="380"/>
      <point x="381" y="357" type="curve" smooth="yes"/>
      <point x="361" y="277"/>
      <point x="352" y="239"/>
      <point x="324" y="129" type="curve" smooth="yes"/>
      <point x="311" y="78"/>
      <point x="376" y="33"/>
      <point x="454" y="33" type="curve"/>
      <point x="461" y="62"/>
      <point x="467" y="86"/>
      <point x="476" y="120" type="curve" smooth="yes"/>
      <point x="495" y="195"/>
      <point x="503" y="227"/>
      <point x="528" y="324" type="curve" smooth="yes"/>
      <point x="545" y="391"/>
      <point x="521" y="428"/>
    </contour>
    <contour>
      <point x="533" y="127" type="line"/>
      <point x="513" y="127" type="line"/>
      <point x="509" y="127"/>
      <point x="507" y="127"/>
      <point x="502" y="127" type="curve" smooth="yes"/>
      <point x="483" y="127"/>
      <point x="475" y="140"/>
      <point x="482" y="169" type="curve"/>
      <point x="343" y="164"/>
      <point x="330" y="153"/>
      <point x="324" y="129" type="curve" smooth="yes"/>
      <point x="304" y="53"/>
      <point x="353" y="-10"/>
      <point x="464" y="-10" type="curve" smooth="yes"/>
      <point x="488" y="-10" type="line" smooth="yes"/>
      <point x="495" y="-10"/>
      <point x="500" y="-6"/>
      <point x="502" y="1" type="curve"/>
    </contour>
    <contour>
      <point x="164" y="135" type="curve" smooth="yes"/>
      <point x="175" y="174" type="line" smooth="yes"/>
      <point x="185" y="210"/>
      <point x="199" y="238"/>
      <point x="221" y="267" type="curve"/>
      <point x="145" y="284"/>
      <point x="40" y="230"/>
      <point x="25" y="171" type="curve" smooth="yes"/>
      <point x="16" y="134" type="line" smooth="yes"/>
      <point x="-1" y="62"/>
      <point x="44" y="-10"/>
      <point x="142" y="-10" type="curve" smooth="yes"/>
      <point x="216" y="-10"/>
      <point x="271" y="15"/>
      <point x="336" y="83" type="curve" smooth="yes"/>
      <point x="351" y="98"/>
      <point x="356" y="116"/>
      <point x="364" y="180" type="curve"/>
      <point x="310" y="132"/>
      <point x="268" y="120"/>
      <point x="217" y="120" type="curve" smooth="yes"/>
      <point x="178" y="120" type="line" smooth="yes"/>
      <point x="166" y="120"/>
      <point x="162" y="126"/>
    </contour>
    <contour>
      <point x="388" y="286" type="curve" smooth="yes"/>
      <point x="375" y="303"/>
      <point x="307" y="317"/>
      <point x="215" y="317" type="curve" smooth="yes"/>
      <point x="132" y="317"/>
      <point x="47" y="252"/>
      <point x="25" y="171" type="curve" smooth="yes"/>
      <point x="19" y="155"/>
      <point x="38" y="146"/>
      <point x="94" y="150" type="curve"/>
      <point x="113" y="183"/>
      <point x="150" y="212"/>
      <point x="189" y="212" type="curve" smooth="yes"/>
      <point x="241" y="212"/>
      <point x="354" y="212"/>
      <point x="395" y="212" type="curve"/>
      <point x="402" y="240"/>
      <point x="402" y="268"/>
    </contour>
  </outline>
</glyph>
<glyph name="d" format="2">
  <advance width="600"/>
  <unicode hex="0064"/>
  <anchor x="551.799530205225" y="711" name="caronslovak"/>
  <outline>
    <contour>
      <point x="300" y="552" type="curve" smooth="yes"/>
      <point x="184" y="552"/>
      <point x="110" y="487"/>
      <point x="72" y="341" type="curve" smooth="yes"/>
      <point x="33" y="185" type="line" smooth="yes"/>
      <point x="15" y="115"/>
      <point x="61" y="56"/>
      <point x="139" y="56" type="curve" smooth="yes"/>
      <point x="172" y="56"/>
      <point x="195" y="70"/>
      <point x="201" y="95" type="curve"/>
      <point x="184" y="124"/>
      <point x="176" y="139"/>
      <point x="190" y="191" type="curve" smooth="yes"/>
      <point x="227" y="340" type="line" smooth="yes"/>
      <point x="239" y="387"/>
      <point x="269" y="412"/>
      <point x="314" y="412" type="curve" smooth="yes"/>
      <point x="353" y="412"/>
      <point x="395" y="393"/>
      <point x="428" y="351" type="curve"/>
      <point x="436" y="362"/>
      <point x="456" y="398"/>
      <point x="459" y="413" type="curve" smooth="yes"/>
      <point x="466" y="461"/>
      <point x="395" y="552"/>
    </contour>
    <contour>
      <point x="142" y="-10" type="curve" smooth="yes"/>
      <point x="203" y="-10"/>
      <point x="255" y="16"/>
      <point x="322" y="78" type="curve" smooth="yes"/>
      <point x="396" y="146"/>
      <point x="397" y="199"/>
      <point x="380" y="238" type="curve"/>
      <point x="322" y="171"/>
      <point x="262" y="133"/>
      <point x="208" y="133" type="curve" smooth="yes"/>
      <point x="166" y="133"/>
      <point x="132" y="167"/>
      <point x="132" y="223" type="curve"/>
      <point x="91" y="231"/>
      <point x="40" y="206"/>
      <point x="33" y="185" type="curve" smooth="yes"/>
      <point x="5" y="73"/>
      <point x="53" y="-10"/>
    </contour>
    <contour>
      <point x="496" y="750" type="curve"/>
      <point x="488" y="717"/>
      <point x="479" y="683"/>
      <point x="471" y="650" type="curve" smooth="yes"/>
      <point x="308" y="11" type="line"/>
      <point x="308" y="8"/>
      <point x="308" y="5"/>
      <point x="309" y="3" type="curve" smooth="yes"/>
      <point x="310" y="1"/>
      <point x="313" y="0"/>
      <point x="316" y="0" type="curve" smooth="yes"/>
      <point x="364" y="0"/>
      <point x="412" y="0"/>
      <point x="460" y="0" type="curve"/>
      <point x="473" y="50"/>
      <point x="486" y="99"/>
      <point x="499" y="149" type="curve" smooth="yes"/>
      <point x="648" y="739" type="line"/>
      <point x="649" y="742"/>
      <point x="648" y="745"/>
      <point x="647" y="747" type="curve" smooth="yes"/>
      <point x="646" y="749"/>
      <point x="643" y="750"/>
      <point x="640" y="750" type="curve" smooth="yes"/>
      <point x="592" y="750"/>
      <point x="544" y="750"/>
    </contour>
  </outline>
</glyph>
<glyph name="h" format="2">
  <advance width="600"/>
  <unicode hex="0068"/>
  <anchor x="140" y="730" name="top"/>
  <outline>
    <contour>
      <point x="176.67390124796526" y="0.0" type="curve"/>
      <point x="364.2769551406874" y="739.0" type="line" smooth="yes"/>
      <point x="365.0385372268554" y="742.0"/>
      <point x="364.80011931302346" y="745.0"/>
      <point x="363.3078407038021" y="747.0" type="curve" smooth="yes"/>
      <point x="361.8155620945808" y="749.0"/>
      <point x="359.06942278997013" y="750.0"/>
      <point x="356.06942278997013" y="750.0" type="curve" smooth="yes"/>
      <point x="311.06942278997013" y="750.0"/>
      <point x="262.0694227899702" y="750.0"/>
      <point x="207.06942278997016" y="750.0" type="curve"/>
      <point x="199.96132331906864" y="722.0"/>
      <point x="191.33005967583108" y="688.0"/>
      <point x="182.19107464181485" y="652.0" type="curve" smooth="yes"/>
      <point x="19.466368897248003" y="11.0" type="line" smooth="yes"/>
      <point x="17.94320472491198" y="5.0"/>
      <point x="21.673901247965276" y="0.0"/>
      <point x="27.673901247965276" y="0.0" type="curve" smooth="yes"/>
      <point x="77.67390124796528" y="0.0"/>
      <point x="126.67390124796528" y="0.0"/>
    </contour>
    <contour>
      <point x="474.9891481280521" y="552.0" type="curve" smooth="yes"/>
      <point x="412.7923485780355" y="552.0"/>
      <point x="358.0857297883885" y="532.0472056429734"/>
      <point x="284.8969072164948" y="464.7124253933804" type="curve" smooth="yes"/>
      <point x="248.3082811711168" y="432.5789520340134"/>
      <point x="234.6093326098752" y="407.94628323385786"/>
      <point x="212.90124796527402" y="312.8068366793272" type="curve"/>
      <point x="296.2798073233904" y="378.8963975261641"/>
      <point x="343.7552902875746" y="404.18882257189364"/>
      <point x="390.56429734129136" y="404.18882257189364" type="curve" smooth="yes"/>
      <point x="427.03852414541507" y="404.18882257189364"/>
      <point x="453.79815518176883" y="385.57080846446013"/>
      <point x="457.6071622354856" y="329.8133478024959" type="curve"/>
      <point x="532.1394465545307" y="340.47856755290286"/>
      <point x="566.1952032022532" y="360.52615004800595"/>
      <point x="576.4698860553445" y="395.66739012479655" type="curve" smooth="yes"/>
      <point x="597.0385241454151" y="476.3819858925665"/>
      <point x="559.5127509495388" y="552.0"/>
    </contour>
    <contour>
      <point x="476.67390124796526" y="0.0" type="curve"/>
      <point x="483.7820007188668" y="28.0"/>
      <point x="492.4132643621043" y="62.0"/>
      <point x="501.55224939612054" y="98.0" type="curve" smooth="yes"/>
      <point x="576.6950152313652" y="395.66739012479655" type="line"/>
      <point x="598.8172028744099" y="473.7247965333503"/>
      <point x="497.27672273467175" y="484.3304395008139"/>
      <point x="409.61367335865435" y="430.18882257189364" type="curve"/>
      <point x="416.46988605534455" y="412.66521975040695"/>
      <point x="417.2316874660879" y="393.14161692892026"/>
      <point x="409.61367335865435" y="364.0944112859468" type="curve" smooth="yes"/>
      <point x="319.466368897248" y="11.0" type="line" smooth="yes"/>
      <point x="318.197504069452" y="5.0"/>
      <point x="321.6739012479653" y="0.0"/>
      <point x="327.6739012479653" y="0.0" type="curve" smooth="yes"/>
      <point x="377.67390124796526" y="0.0"/>
      <point x="426.67390124796526" y="0.0"/>
    </contour>
  </outline>
</glyph>
<glyph name="i" format="2">
  <advance width="600"/>
  <unicode hex="0069"/>
  <anchor x="259" y="-1" name="bottom"/>
  <anchor x="409" y="-1" name="ogonek"/>
  <outline>
    <contour>
      <point x="148.52264854334172" y="540.0" type="curve"/>
      <point x="136.8450565554321" y="494.0"/>
      <point x="125.16746456752246" y="449.6673901247965"/>
      <point x="113.48987257961282" y="403.66739012479655" type="curve" smooth="yes"/>
      <point x="111.9667084072768" y="397.66739012479655"/>
      <point x="115.6974049303301" y="392.66739012479655"/>
      <point x="121.6974049303301" y="392.66739012479655" type="curve" smooth="yes"/>
      <point x="179.69740493033007" y="392.66739012479655"/>
      <point x="227.69740493033007" y="392.66739012479655"/>
      <point x="285.6974049303301" y="392.66739012479655" type="curve"/>
      <point x="315.9068276816615" y="511.66739012479655"/>
      <point x="319.5226485433417" y="540.0"/>
      <point x="308.5226485433417" y="540.0" type="curve" smooth="yes"/>
      <point x="251.52264854334172" y="540.0"/>
      <point x="205.52264854334172" y="540.0"/>
    </contour>
    <contour>
      <point x="454.7610664571737" y="537.0" type="curve" smooth="yes"/>
      <point x="453.26878784795235" y="539.0"/>
      <point x="450.5226485433417" y="540.0"/>
      <point x="447.5226485433417" y="540.0" type="curve" smooth="yes"/>
      <point x="308.5226485433417" y="540.0" type="line"/>
      <point x="195.80849979047485" y="96.0" type="line" smooth="yes"/>
      <point x="189.71584310113067" y="72.0"/>
      <point x="257.44653962418397" y="67.0"/>
      <point x="338.44653962418397" y="67.0" type="curve"/>
      <point x="455.73018089405895" y="529.0" type="line" smooth="yes"/>
      <point x="456.491762980227" y="532.0"/>
      <point x="456.253345066395" y="535.0"/>
    </contour>
    <contour>
      <point x="25.70906691065909" y="136.66739012479653" type="line"/>
      <point x="14.031474922749467" y="90.66739012479653"/>
      <point x="5.907932670290592" y="57.0"/>
      <point x="-5.769659317619045" y="11.0" type="curve" smooth="yes"/>
      <point x="-6.531241403787078" y="8.0"/>
      <point x="-6.292823489955083" y="5.0"/>
      <point x="-4.800544880733767" y="3.0" type="curve" smooth="yes"/>
      <point x="-3.308266271512437" y="1.0"/>
      <point x="-0.5621269669017863" y="0.0"/>
      <point x="2.4378730330982137" y="0.0" type="curve"/>
      <point x="471.4378730330982" y="0.0" type="line"/>
      <point x="483.1154650210079" y="46.0"/>
      <point x="491.2390072734667" y="79.66739012479653"/>
      <point x="502.91659926137635" y="125.66739012479653" type="curve" smooth="yes"/>
      <point x="504.43976343371236" y="131.66739012479653"/>
      <point x="500.70906691065915" y="136.66739012479653"/>
      <point x="494.70906691065915" y="136.66739012479653" type="curve"/>
    </contour>
    <contour>
      <point x="490.4473250361691" y="650.0" type="curve"/>
      <point x="525.7339616952873" y="789.0" type="line" smooth="yes"/>
      <point x="527.2571258676234" y="795.0"/>
      <point x="523.52642934457" y="800.0"/>
      <point x="517.52642934457" y="800.0" type="curve" smooth="yes"/>
      <point x="461.5264293445701" y="800.0"/>
      <point x="404.52642934457003" y="800.0"/>
      <point x="348.52642934457003" y="800.0" type="curve"/>
      <point x="313.23979268545185" y="661.0" type="line" smooth="yes"/>
      <point x="311.7166285131158" y="655.0"/>
      <point x="315.4473250361691" y="650.0"/>
      <point x="321.4473250361691" y="650.0" type="curve" smooth="yes"/>
      <point x="377.4473250361691" y="650.0"/>
      <point x="434.44732503616905" y="650.0"/>
    </contour>
  </outline>
</glyph>
<glyph name="j" format="2">
  <advance width="600"/>
  <unicode hex="006A"/>
  <outline>
    <contour>
      <point x="140" y="540" type="curve"/>
      <point x="129" y="496"/>
      <point x="120" y="458"/>
      <point x="109" y="414" type="curve" smooth="yes"/>
      <point x="107" y="408"/>
      <point x="111" y="403"/>
      <point x="117" y="403" type="curve" smooth="yes"/>
      <point x="226" y="403"/>
      <point x="336" y="403"/>
      <point x="445" y="403" type="curve"/>
      <point x="459" y="460"/>
      <point x="457" y="540"/>
      <point x="404" y="540" type="curve" smooth="yes"/>
      <point x="316" y="540"/>
      <point x="228" y="540"/>
    </contour>
    <contour>
      <point x="380" y="-6" type="curve" smooth="yes"/>
      <point x="516" y="529" type="line" smooth="yes"/>
      <point x="517" y="532"/>
      <point x="517" y="535"/>
      <point x="515" y="537" type="curve" smooth="yes"/>
      <point x="514" y="539"/>
      <point x="511" y="540"/>
      <point x="508" y="540" type="curve" smooth="yes"/>
      <point x="369" y="540" type="line"/>
      <point x="235" y="14" type="line" smooth="yes"/>
      <point x="218" y="-57"/>
      <point x="186" y="-98"/>
      <point x="136" y="-139" type="curve"/>
      <point x="208" y="-199"/>
      <point x="352" y="-118"/>
    </contour>
    <contour>
      <point x="91" y="-105" type="curve" smooth="yes"/>
      <point x="46" y="-105"/>
      <point x="-1" y="-97"/>
      <point x="-47" y="-75" type="curve"/>
      <point x="-67" y="-75" type="line"/>
      <point x="-77" y="-117"/>
      <point x="-87" y="-159"/>
      <point x="-98" y="-201" type="curve" smooth="yes"/>
      <point x="-99" y="-204"/>
      <point x="-99" y="-207"/>
      <point x="-97" y="-209" type="curve" smooth="yes"/>
      <point x="-84" y="-227"/>
      <point x="-18" y="-250"/>
      <point x="65" y="-250" type="curve" smooth="yes"/>
      <point x="246" y="-250"/>
      <point x="334" y="-183"/>
      <point x="380" y="-6" type="curve" smooth="yes"/>
      <point x="390" y="26"/>
      <point x="346" y="35"/>
      <point x="283" y="35" type="curve"/>
      <point x="227" y="-68"/>
      <point x="185" y="-105"/>
    </contour>
    <contour>
      <point x="552" y="650" type="curve"/>
      <point x="587" y="789" type="line" smooth="yes"/>
      <point x="589" y="795"/>
      <point x="585" y="800"/>
      <point x="579" y="800" type="curve" smooth="yes"/>
      <point x="523" y="800"/>
      <point x="466" y="800"/>
      <point x="410" y="800" type="curve"/>
      <point x="375" y="661" type="line" smooth="yes"/>
      <point x="373" y="655"/>
      <point x="377" y="650"/>
      <point x="383" y="650" type="curve" smooth="yes"/>
      <point x="439" y="650"/>
      <point x="496" y="650"/>
    </contour>
  </outline>
</glyph>
<glyph name="l" format="2">
  <advance width="600"/>
  <unicode hex="006C"/>
  <outline>
    <contour>
      <point x="259.9280243603383" y="750.0" type="curve"/>
      <point x="245.26558026453182" y="706.0"/>
      <point x="233.2690350952356" y="670.0"/>
      <point x="218.60659099942905" y="626.0" type="curve" smooth="yes"/>
      <point x="216.60716680454635" y="620.0"/>
      <point x="219.94097997547743" y="615.0"/>
      <point x="225.94097997547743" y="615.0" type="curve" smooth="yes"/>
      <point x="283.94097997547743" y="615.0"/>
      <point x="331.94097997547743" y="615.0"/>
      <point x="389.94097997547743" y="615.0" type="curve"/>
      <point x="427.6413904106778" y="728.1338028169014"/>
      <point x="430.9280243603383" y="750.0"/>
      <point x="419.9280243603383" y="750.0" type="curve" smooth="yes"/>
      <point x="362.9280243603383" y="750.0"/>
      <point x="316.9280243603383" y="750.0"/>
    </contour>
    <contour>
      <point x="565.928312262897" y="747.0" type="curve" smooth="yes"/>
      <point x="564.5947869945246" y="749.0"/>
      <point x="561.9280243603383" y="750.0"/>
      <point x="558.9280243603383" y="750.0" type="curve" smooth="yes"/>
      <point x="419.9280243603383" y="750.0" type="line"/>
      <point x="201.9907871181233" y="96.0" type="line" smooth="yes"/>
      <point x="193.99309033859248" y="72.0"/>
      <point x="261.32690350952356" y="67.0"/>
      <point x="342.32690350952356" y="67.0" type="curve"/>
      <point x="566.2624133363867" y="739.0" type="line"/>
      <point x="567.262125433828" y="742.0"/>
      <point x="567.2618375312694" y="745.0"/>
    </contour>
    <contour>
      <point x="34.987044384860894" y="135.0" type="line"/>
      <point x="20.477228090190465" y="91.45801526717557"/>
      <point x="8.175427318622056" y="54.541984732824424"/>
      <point x="-6.334388976048373" y="11.0" type="curve" smooth="yes"/>
      <point x="-7.334101073489727" y="8.0"/>
      <point x="-7.33381317093108" y="5.0"/>
      <point x="-6.000287902558647" y="3.0" type="curve" smooth="yes"/>
      <point x="-4.666762634186213" y="1.0"/>
      <point x="-2.0" y="0.0"/>
      <point x="1.0" y="0.0" type="curve" smooth="yes"/>
      <point x="470.0" y="0.0" type="line"/>
      <point x="484.5098162946704" y="43.541984732824424"/>
      <point x="496.8116170662388" y="80.45801526717557"/>
      <point x="511.3214333609093" y="124.0" type="curve" smooth="yes"/>
      <point x="513.3208575557919" y="130.0"/>
      <point x="509.98704438486095" y="135.0"/>
      <point x="503.98704438486095" y="135.0" type="curve" smooth="yes"/>
    </contour>
  </outline>
</glyph>
<glyph name="m" format="2">
  <advance width="600"/>
  <unicode hex="006D"/>
  <guideline x="-68.0" y="0" angle="75.96000000000001" identifier="5dMLUEX2ju"/>
  <guideline x="-18.0" y="0" angle="75.96000000000001" identifier="uQNXhZ3eI5"/>
  <guideline x="32.0" y="0" angle="75.96000000000001" identifier="VOxMgTGEEN"/>
  <guideline x="82.0" y="0" angle="75.96000000000001" identifier="wsr8FqQoES"/>
  <guideline x="132.0" y="0" angle="75.96000000000001" identifier="bgAnnQEUNi"/>
  <guideline x="182.0" y="0" angle="75.96000000000001" identifier="s4GzVuYhZ1"/>
  <guideline x="232.0" y="0" angle="75.96000000000001" identifier="7118598tMS"/>
  <guideline x="282.0" y="0" angle="75.96000000000001" identifier="AKmGd7C4qB"/>
  <guideline x="332.0" y="0" angle="75.96000000000001" identifier="rM3crHMAw4"/>
  <guideline x="382.0" y="0" angle="75.96000000000001" identifier="6BLt9mpS8B"/>
  <guideline x="432.0" y="0" angle="75.96000000000001" identifier="0OV4WhdyE6"/>
  <guideline x="482.0" y="0" angle="75.96000000000001" identifier="jFY4vCs7cC"/>
  <guideline x="532.0" y="0" angle="75.96000000000001" identifier="5ZWbgJUtJK"/>
  <guideline x="-68.0" y="-250" angle="0" identifier="Qc6yK1SxQD"/>
  <guideline x="-68.0" y="-200" angle="0" identifier="zqPB8vh6hv"/>
  <guideline x="-68.0" y="-150" angle="0" identifier="yrQqLejTFm"/>
  <guideline x="-68.0" y="-100" angle="0" identifier="F7HvY6Vy4n"/>
  <guideline x="-68.0" y="-50" angle="0" identifier="URtBvb6ZEG"/>
  <guideline x="-68.0" y="0" angle="0" identifier="3b5YFKXdfv"/>
  <guideline x="-68.0" y="50" angle="0" identifier="ClNkQbXthy"/>
  <guideline x="-68.0" y="100" angle="0" identifier="ZEIooKEEVs"/>
  <guideline x="-68.0" y="150" angle="0" identifier="2VS9SqxKRn"/>
  <guideline x="-68.0" y="200" angle="0" identifier="rUAHlXqWUJ"/>
  <guideline x="-68.0" y="250" angle="0" identifier="GQQBTpONh5"/>
  <guideline x="-68.0" y="300" angle="0" identifier="wJnMvayqjB"/>
  <guideline x="-68.0" y="350" angle="0" identifier="r738zcTqd7"/>
  <guideline x="-68.0" y="400" angle="0" identifier="480kmZhfWP"/>
  <guideline x="-68.0" y="450" angle="0" identifier="9OezviOsa2"/>
  <guideline x="-68.0" y="500" angle="0" identifier="lZ9zZrkmpF"/>
  <guideline x="-68.0" y="550" angle="0" identifier="5zo3yHGWEt"/>
  <guideline x="-68.0" y="600" angle="0" identifier="1ETZpRY0iT"/>
  <guideline x="-68.0" y="650" angle="0" identifier="HSumCw103N"/>
  <guideline x="-68.0" y="700" angle="0" identifier="nA6hdMvkQ9"/>
  <outline>
    <contour>
      <point x="92.0" y="0.0" type="curve"/>
      <point x="202.53079092926782" y="442.0" type="line"/>
      <point x="214.53413474059107" y="490.0"/>
      <point x="205.28713023823474" y="533.0"/>
      <point x="203.03733922644244" y="536.0" type="curve" smooth="yes"/>
      <point x="200.03761787738608" y="540.0"/>
      <point x="196.03761787738608" y="540.0"/>
      <point x="192.03761787738608" y="540.0" type="curve"/>
      <point x="161.03761787738605" y="540.0"/>
      <point x="128.03761787738605" y="540.0"/>
      <point x="97.03761787738605" y="540.0" type="curve"/>
      <point x="88.78531900710135" y="507.0"/>
      <point x="80.28295047408074" y="473.0"/>
      <point x="72.03065160379606" y="440.0" type="curve" smooth="yes"/>
      <point x="-35.2492337099051" y="11.0" type="line" smooth="yes"/>
      <point x="-36.749651686320504" y="5.0"/>
      <point x="-33.0" y="0.0"/>
      <point x="-27.0" y="0.0" type="curve" smooth="yes"/>
      <point x="12.0" y="0.0"/>
      <point x="53.0" y="0.0"/>
    </contour>
    <contour>
      <point x="420.53580664625264" y="514.0"/>
      <point x="391.03845383021684" y="552.0"/>
      <point x="341.03845383021684" y="552.0" type="curve" smooth="yes"/>
      <point x="304.03845383021684" y="552.0"/>
      <point x="275" y="540"/>
      <point x="235" y="504" type="curve" smooth="yes"/>
      <point x="193" y="467"/>
      <point x="156" y="409.0"/>
      <point x="139" y="343.0" type="curve"/>
      <point x="180" y="376.0"/>
      <point x="214.0273077924728" y="392.0"/>
      <point x="243.0273077924728" y="392.0" type="curve" smooth="yes"/>
      <point x="259.0273077924728" y="392.0"/>
      <point x="268.77695947879334" y="387.0"/>
      <point x="262.52521791039584" y="362.0" type="curve"/>
      <point x="399.28044261558836" y="437.0"/>
      <point x="404.53134823115505" y="450.0"/>
      <point x="405.7816965448345" y="455.0" type="curve" smooth="yes"/>
    </contour>
    <contour>
      <point x="292.0" y="0.0" type="curve"/>
      <point x="405.7816965448345" y="455.0" type="line"/>
      <point x="416.53469204247824" y="498.0"/>
      <point x="347.03120890568323" y="448.0"/>
      <point x="260.77779543162416" y="399.0" type="curve"/>
      <point x="265.52716846700105" y="390.0"/>
      <point x="268.5268898160574" y="386.0"/>
      <point x="262.52521791039584" y="362.0" type="curve" smooth="yes"/>
      <point x="174.7507662900949" y="11.0" type="line" smooth="yes"/>
      <point x="173.2503483136795" y="5.0"/>
      <point x="177.0" y="0.0"/>
      <point x="183.0" y="0.0" type="curve" smooth="yes"/>
      <point x="219.0" y="0.0"/>
      <point x="256.0" y="0.0"/>
    </contour>
    <contour>
      <point x="626" y="500"/>
      <point x="603" y="552.0"/>
      <point x="546" y="552.0" type="curve" smooth="yes"/>
      <point x="509" y="552.0"/>
      <point x="473.0" y="531"/>
      <point x="440" y="504" type="curve" smooth="yes"/>
      <point x="406" y="477"/>
      <point x="348.7783527335113" y="407.0"/>
      <point x="334.0242426320932" y="348.0" type="curve"/>
      <point x="379.02675049058564" y="384.0"/>
      <point x="416" y="392.0"/>
      <point x="439" y="392.0" type="curve" smooth="yes"/>
      <point x="459" y="392.0"/>
      <point x="468.7769594787933" y="387.0"/>
      <point x="462.2751482476599" y="361.0" type="curve"/>
      <point x="607.0298156509652" y="428.0"/>
      <point x="609" y="432"/>
      <point x="611" y="442" type="curve" smooth="yes"/>
    </contour>
    <contour>
      <point x="500" y="0.0" type="curve"/>
      <point x="508" y="32"/>
      <point x="517.0" y="66.0"/>
      <point x="525" y="98" type="curve" smooth="yes"/>
      <point x="611" y="442" type="line"/>
      <point x="625" y="495"/>
      <point x="573.5319055330423" y="458.0"/>
      <point x="463.27849205898315" y="409.0" type="curve"/>
      <point x="467.27765610615234" y="397.0"/>
      <point x="469.52716846700105" y="390.0"/>
      <point x="462.2751482476599" y="361.0" type="curve" smooth="yes"/>
      <point x="374.7507662900949" y="11.0" type="line" smooth="yes"/>
      <point x="373.2503483136795" y="5.0"/>
      <point x="377.0" y="0.0"/>
      <point x="383.0" y="0.0" type="curve"/>
      <point x="423.0" y="0.0"/>
      <point x="461" y="0.0"/>
    </contour>
  </outline>
</glyph>
<glyph name="o" format="2">
  <advance width="600"/>
  <unicode hex="006F"/>
  <guideline x="-68.0" y="0" angle="75.96000000000001" identifier="9fL5LvVYw2"/>
  <guideline x="-18.0" y="0" angle="75.96000000000001" identifier="N1c19lmkxr"/>
  <guideline x="32.0" y="0" angle="75.96000000000001" identifier="j8Vora6q9H"/>
  <guideline x="82.0" y="0" angle="75.96000000000001" identifier="I7gXrMNWqR"/>
  <guideline x="132.0" y="0" angle="75.96000000000001" identifier="WKupTIO0cm"/>
  <guideline x="182.0" y="0" angle="75.96000000000001" identifier="kSomAMxexR"/>
  <guideline x="232.0" y="0" angle="75.96000000000001" identifier="32t8uRhAAp"/>
  <guideline x="282.0" y="0" angle="75.96000000000001" identifier="dByp8hECwJ"/>
  <guideline x="332.0" y="0" angle="75.96000000000001" identifier="6Jdbs3grrv"/>
  <guideline x="382.0" y="0" angle="75.96000000000001" identifier="b5KqsfMlED"/>
  <guideline x="432.0" y="0" angle="75.96000000000001" identifier="lYYiHQMSdP"/>
  <guideline x="482.0" y="0" angle="75.96000000000001" identifier="2pBKFufIM4"/>
  <guideline x="532.0" y="0" angle="75.96000000000001" identifier="aw6K2SNnOi"/>
  <guideline x="-68.0" y="-250" angle="0" identifier="lTWBcXx2i1"/>
  <guideline x="-68.0" y="-200" angle="0" identifier="ZITSnLlJjL"/>
  <guideline x="-68.0" y="-150" angle="0" identifier="iv8JiBOdTe"/>
  <guideline x="-68.0" y="-100" angle="0" identifier="OFjz9jAtX3"/>
  <guideline x="-68.0" y="-50" angle="0" identifier="E6M9MUibSr"/>
  <guideline x="-68.0" y="0" angle="0" identifier="NTvha73x8v"/>
  <guideline x="-68.0" y="50" angle="0" identifier="Rp4rN98OZr"/>
  <guideline x="-68.0" y="100" angle="0" identifier="QOqLBNanrE"/>
  <guideline x="-68.0" y="150" angle="0" identifier="8ClxBXWKJm"/>
  <guideline x="-68.0" y="200" angle="0" identifier="bKwi0LS5Ry"/>
  <guideline x="-68.0" y="250" angle="0" identifier="J6OH1H9LtP"/>
  <guideline x="-68.0" y="300" angle="0" identifier="hnwJcRnP7C"/>
  <guideline x="-68.0" y="350" angle="0" identifier="k4MqmeCqYH"/>
  <guideline x="-68.0" y="400" angle="0" identifier="rNC7Y83Itm"/>
  <guideline x="-68.0" y="450" angle="0" identifier="IB8cRktgIH"/>
  <guideline x="-68.0" y="500" angle="0" identifier="7XB5I0Ex7p"/>
  <guideline x="-68.0" y="550" angle="0" identifier="yLZySBqSr4"/>
  <guideline x="-68.0" y="600" angle="0" identifier="NxAqheqG3l"/>
  <guideline x="-68.0" y="650" angle="0" identifier="oJuJ7fBzBF"/>
  <guideline x="-68.0" y="700" angle="0" identifier="S9I8rUvaCB"/>
  <anchor x="369.78838416748096" y="551" name="top"/>
  <anchor x="231.74993033726412" y="-1" name="bottom"/>
  <anchor x="310.7499303372641" y="-1" name="ogonek"/>
  <outline>
    <contour>
      <point x="357" y="552" type="curve" smooth="yes"/>
      <point x="207" y="552"/>
      <point x="108" y="473"/>
      <point x="66" y="311" type="curve" smooth="yes"/>
      <point x="49" y="248" type="line" smooth="yes"/>
      <point x="11" y="96"/>
      <point x="99" y="-12"/>
      <point x="242" y="-12" type="curve" smooth="yes"/>
      <point x="273" y="-12"/>
      <point x="292" y="25"/>
      <point x="303" y="106" type="curve"/>
      <point x="201" y="106"/>
      <point x="169" y="139"/>
      <point x="197" y="242" type="curve" smooth="yes"/>
      <point x="212" y="301" type="line" smooth="yes"/>
      <point x="230" y="373"/>
      <point x="279" y="417"/>
      <point x="342" y="417" type="curve" smooth="yes"/>
      <point x="390" y="417"/>
      <point x="414" y="405"/>
      <point x="440" y="374" type="curve"/>
      <point x="502" y="451"/>
      <point x="456" y="552"/>
    </contour>
    <contour>
      <point x="242" y="-12" type="curve" smooth="yes"/>
      <point x="392" y="-12"/>
      <point x="491" y="67"/>
      <point x="533" y="229" type="curve" smooth="yes"/>
      <point x="550" y="292" type="line" smooth="yes"/>
      <point x="588" y="444"/>
      <point x="499" y="552"/>
      <point x="357" y="552" type="curve" smooth="yes"/>
      <point x="327" y="552"/>
      <point x="310" y="517"/>
      <point x="296" y="434" type="curve"/>
      <point x="397" y="434"/>
      <point x="430" y="401"/>
      <point x="401" y="298" type="curve" smooth="yes"/>
      <point x="387" y="239" type="line" smooth="yes"/>
      <point x="368" y="168"/>
      <point x="320" y="123"/>
      <point x="256" y="123" type="curve" smooth="yes"/>
      <point x="208" y="123"/>
      <point x="184" y="135"/>
      <point x="159" y="166" type="curve"/>
      <point x="96" y="89"/>
      <point x="143" y="-12"/>
    </contour>
  </outline>
</glyph>
<glyph name="p" format="2">
  <advance width="600"/>
  <unicode hex="0070"/>
  <outline>
    <contour>
      <point x="107" y="-200" type="curve"/>
      <point x="292" y="529" type="line" smooth="yes"/>
      <point x="293" y="532"/>
      <point x="293" y="535"/>
      <point x="291" y="537" type="curve" smooth="yes"/>
      <point x="290" y="539"/>
      <point x="287" y="540"/>
      <point x="284" y="540" type="curve"/>
      <point x="236" y="540"/>
      <point x="188" y="540"/>
      <point x="140" y="540" type="curve"/>
      <point x="132" y="511"/>
      <point x="124" y="478"/>
      <point x="114" y="439" type="curve" smooth="yes"/>
      <point x="-45" y="-189" type="line" smooth="yes"/>
      <point x="-47" y="-195"/>
      <point x="-43" y="-200"/>
      <point x="-37" y="-200" type="curve"/>
      <point x="11" y="-200"/>
      <point x="59" y="-200"/>
    </contour>
    <contour>
      <point x="458" y="552" type="curve" smooth="yes"/>
      <point x="398" y="552"/>
      <point x="343" y="525"/>
      <point x="276" y="465" type="curve" smooth="yes"/>
      <point x="201" y="398"/>
      <point x="203" y="346"/>
      <point x="220" y="307" type="curve"/>
      <point x="277" y="370"/>
      <point x="337" y="408"/>
      <point x="390" y="408" type="curve" smooth="yes"/>
      <point x="434" y="408"/>
      <point x="469" y="371"/>
      <point x="469" y="314" type="curve"/>
      <point x="509" y="314"/>
      <point x="562" y="334"/>
      <point x="568" y="356" type="curve" smooth="yes"/>
      <point x="596" y="469"/>
      <point x="548" y="552"/>
    </contour>
    <contour>
      <point x="301" y="-10" type="curve" smooth="yes"/>
      <point x="417" y="-10"/>
      <point x="491" y="55"/>
      <point x="529" y="203" type="curve" smooth="yes"/>
      <point x="568" y="356" type="line" smooth="yes"/>
      <point x="586" y="427"/>
      <point x="540" y="486"/>
      <point x="462" y="486" type="curve" smooth="yes"/>
      <point x="429" y="486"/>
      <point x="406" y="472"/>
      <point x="400" y="447" type="curve"/>
      <point x="417" y="417"/>
      <point x="425" y="401"/>
      <point x="411" y="347" type="curve" smooth="yes"/>
      <point x="374" y="203" type="line" smooth="yes"/>
      <point x="362" y="155"/>
      <point x="332" y="129"/>
      <point x="287" y="129" type="curve" smooth="yes"/>
      <point x="247" y="129"/>
      <point x="204" y="148"/>
      <point x="171" y="190" type="curve"/>
      <point x="163" y="180"/>
      <point x="143" y="144"/>
      <point x="140" y="128" type="curve" smooth="yes"/>
      <point x="134" y="81"/>
      <point x="205" y="-10"/>
    </contour>
  </outline>
</glyph>
<glyph name="q" format="2">
  <advance width="600"/>
  <unicode hex="0071"/>
  <outline>
    <contour>
      <point x="289" y="552" type="curve" smooth="yes"/>
      <point x="183" y="552"/>
      <point x="110" y="487"/>
      <point x="75" y="352" type="curve" smooth="yes"/>
      <point x="33" y="185" type="line" smooth="yes"/>
      <point x="15" y="115"/>
      <point x="61" y="56"/>
      <point x="139" y="56" type="curve" smooth="yes"/>
      <point x="172" y="56"/>
      <point x="195" y="70"/>
      <point x="201" y="95" type="curve"/>
      <point x="184" y="125"/>
      <point x="176" y="142"/>
      <point x="190" y="196" type="curve" smooth="yes"/>
      <point x="227" y="336" type="line" smooth="yes"/>
      <point x="239" y="384"/>
      <point x="268" y="410"/>
      <point x="314" y="410" type="curve" smooth="yes"/>
      <point x="353" y="410"/>
      <point x="395" y="387"/>
      <point x="425" y="344" type="curve"/>
      <point x="434" y="354"/>
      <point x="457" y="386"/>
      <point x="459" y="403" type="curve" smooth="yes"/>
      <point x="466" y="453"/>
      <point x="396" y="552"/>
    </contour>
    <contour>
      <point x="142" y="-10" type="curve" smooth="yes"/>
      <point x="207" y="-10"/>
      <point x="263" y="9"/>
      <point x="328" y="72" type="curve" smooth="yes"/>
      <point x="398" y="142"/>
      <point x="399" y="196"/>
      <point x="383" y="235" type="curve"/>
      <point x="325" y="172"/>
      <point x="263" y="135"/>
      <point x="211" y="135" type="curve" smooth="yes"/>
      <point x="166" y="135"/>
      <point x="132" y="172"/>
      <point x="132" y="228" type="curve"/>
      <point x="87" y="233"/>
      <point x="39" y="208"/>
      <point x="33" y="185" type="curve" smooth="yes"/>
      <point x="5" y="73"/>
      <point x="53" y="-10"/>
    </contour>
    <contour>
      <point x="409" y="-200" type="curve"/>
      <point x="572" y="440" type="line" smooth="yes"/>
      <point x="581" y="473"/>
      <point x="589" y="507"/>
      <point x="597" y="540" type="curve"/>
      <point x="549" y="540"/>
      <point x="501" y="540"/>
      <point x="453" y="540" type="curve" smooth="yes"/>
      <point x="450" y="540"/>
      <point x="447" y="539"/>
      <point x="445" y="537" type="curve" smooth="yes"/>
      <point x="442" y="535"/>
      <point x="440" y="532"/>
      <point x="439" y="529" type="curve" smooth="yes"/>
      <point x="257" y="-189" type="line" smooth="yes"/>
      <point x="256" y="-195"/>
      <point x="259" y="-200"/>
      <point x="265" y="-200" type="curve" smooth="yes"/>
      <point x="313" y="-200"/>
      <point x="361" y="-200"/>
    </contour>
  </outline>
</glyph>
<glyph name="s" format="2">
  <advance width="600"/>
  <unicode hex="0073"/>
  <anchor x="287" y="551" name="top"/>
  <anchor x="287" y="-1" name="bottom"/>
  <outline>
    <contour>
      <point x="391.80249593054805" y="549.0" type="curve" smooth="yes"/>
      <point x="381.18231144872493" y="549.0" type="line" smooth="yes"/>
      <point x="231.61150298426477" y="549.0"/>
      <point x="136.84970157352143" y="490.6180141074335"/>
      <point x="108.66304937601736" y="378.66521975040695" type="curve" smooth="yes"/>
      <point x="99.52143244709713" y="342.66521975040695"/>
      <point x="154.8499423452895" y="301.0"/>
      <point x="240.84994234528952" y="301.0" type="curve"/>
      <point x="244.1501313853509" y="314.0"/>
      <point x="254.30455920092453" y="354.0"/>
      <point x="258.6201910225433" y="371.0" type="curve" smooth="yes"/>
      <point x="265.38980956625903" y="396.55507325013565"/>
      <point x="291.77461883811685" y="409.3326098752035"/>
      <point x="360.77461883811685" y="409.3326098752035" type="curve" smooth="yes"/>
      <point x="418.77461883811685" y="409.3326098752035"/>
      <point x="455.39202555919155" y="403.3326098752035"/>
      <point x="507.9484536082474" y="388.6180141074335" type="curve"/>
      <point x="527.9484536082474" y="388.6180141074335" type="line"/>
      <point x="539.3754747693977" y="428.80900705371675"/>
      <point x="549.2788931090613" y="467.4763971785133"/>
      <point x="559.9441128594683" y="509.95279435702656" type="curve"/>
      <point x="561.4677156809549" y="514.9527943570266"/>
      <point x="561.2295170916983" y="517.9527943570266"/>
      <point x="559.2295170916983" y="519.9527943570266" type="curve" smooth="yes"/>
      <point x="551.3548233484677" y="530.8746937432306"/>
      <point x="495.8475311991318" y="549.0"/>
    </contour>
    <contour>
      <point x="380.66521975040695" y="322.7618014107434" type="curve" smooth="yes"/>
      <point x="298.2360282148671" y="333.0" type="line" smooth="yes"/>
      <point x="262.52143244709714" y="338.0"/>
      <point x="253.03525572397783" y="349.0"/>
      <point x="258.6201910225433" y="371.0" type="curve" smooth="yes"/>
      <point x="264.96670840727677" y="396.0"/>
      <point x="272.07753756307494" y="424.01075268817203"/>
      <point x="280.1983501306372" y="456.0" type="curve"/>
      <point x="193.19835013063718" y="456.0"/>
      <point x="121.61367335865437" y="429.66521975040695"/>
      <point x="108.66304937601736" y="378.66521975040695" type="curve"/>
      <point x="87.33260987520347" y="296.66521975040695"/>
      <point x="127.95279435702659" y="233.23819858925665"/>
      <point x="227.0965816603364" y="219.23819858925665" type="curve" smooth="yes"/>
      <point x="310.5257731958763" y="208.0" type="line" smooth="yes"/>
      <point x="359.47568683241485" y="200.97873840831596"/>
      <point x="366.6559623755154" y="186.0"/>
      <point x="362.34033055389665" y="169.0" type="curve" smooth="yes"/>
      <point x="356.50153455994183" y="146.0"/>
      <point x="348.53803491979363" y="114.63043478260869"/>
      <point x="341.5237535319708" y="87.0" type="curve"/>
      <point x="433.0232963030322" y="88.99982124744027"/>
      <point x="497.14812805208896" y="115.39172209453322"/>
      <point x="508.5751492132393" y="161.42919153553987" type="curve" smooth="yes"/>
      <point x="527.6201844818231" y="236.38812281325426"/>
      <point x="493.57080846446013" y="307.7618014107434"/>
    </contour>
    <contour>
      <point x="259.1859027383231" y="130.66739012479653" type="curve" smooth="yes"/>
      <point x="168.18590273832305" y="130.66739012479653"/>
      <point x="122.7189365165491" y="138.19099294628325"/>
      <point x="65.57514921323929" y="163.71459576776994" type="curve"/>
      <point x="45.575149213239285" y="163.71459576776994" type="line"/>
      <point x="35.6717308735757" y="123.19099294628323"/>
      <point x="26.530113944655454" y="85.80900705371677"/>
      <point x="14.341291372761802" y="37.09441128594682" type="curve" smooth="yes"/>
      <point x="13.579489962018442" y="34.09441128594682"/>
      <point x="13.579489962018457" y="32.09441128594682"/>
      <point x="14.817688551275111" y="30.094411285946823" type="curve" smooth="yes"/>
      <point x="22.770482908301673" y="19.094411285946826"/>
      <point x="110.05805751492133" y="-9.0"/>
      <point x="223.53011394465545" y="-9.0" type="curve" smooth="yes"/>
      <point x="239.19750406945198" y="-9.0" type="line" smooth="yes"/>
      <point x="380.4378730330982" y="-9.0"/>
      <point x="476.57948996201844" y="36.76397178513294"/>
      <point x="508.5751492132393" y="161.42919153553987" type="curve" smooth="yes"/>
      <point x="525.334780249593" y="227.42919153553987"/>
      <point x="463.6646289666012" y="253.0"/>
      <point x="383.6646289666012" y="253.0" type="curve"/>
      <point x="375.34295153725304" y="220.16722469991927"/>
      <point x="367.92526585246213" y="191.0"/>
      <point x="362.34033055389665" y="169.0" type="curve" smooth="yes"/>
      <point x="356.6989817674669" y="147.78350515463916"/>
      <point x="335.1859027383231" y="130.66739012479653"/>
    </contour>
  </outline>
</glyph>
<glyph name="t" format="2">
  <advance width="600"/>
  <unicode hex="0074"/>
  <anchor x="302.7499303372641" y="-1" name="bottom"/>
  <anchor x="562.04876391513" y="700" name="caronslovak"/>
  <outline>
    <contour>
      <point x="282" y="700" type="curve"/>
      <point x="162" y="220" type="line" smooth="yes"/>
      <point x="136" y="116"/>
      <point x="192" y="58"/>
      <point x="338" y="80" type="curve"/>
      <point x="304" y="126"/>
      <point x="298" y="162"/>
      <point x="315" y="232" type="curve" smooth="yes"/>
      <point x="429" y="689" type="line" smooth="yes"/>
      <point x="431" y="695"/>
      <point x="427" y="700"/>
      <point x="421" y="700" type="curve" smooth="yes"/>
      <point x="377" y="700"/>
      <point x="330" y="700"/>
    </contour>
    <contour>
      <point x="468" y="143" type="curve"/>
      <point x="448" y="143" type="line"/>
      <point x="410" y="143"/>
      <point x="424" y="143"/>
      <point x="377" y="143" type="curve" smooth="yes"/>
      <point x="314" y="143"/>
      <point x="296" y="160"/>
      <point x="315" y="232" type="curve"/>
      <point x="201" y="258"/>
      <point x="167" y="239"/>
      <point x="162" y="220" type="curve" smooth="yes"/>
      <point x="127" y="80"/>
      <point x="206" y="0"/>
      <point x="336" y="0" type="curve" smooth="yes"/>
      <point x="421" y="0" type="line" smooth="yes"/>
      <point x="424" y="0"/>
      <point x="427" y="1"/>
      <point x="430" y="3" type="curve" smooth="yes"/>
      <point x="432" y="5"/>
      <point x="434" y="8"/>
      <point x="435" y="11" type="curve" smooth="yes"/>
      <point x="446" y="57"/>
      <point x="456" y="97"/>
    </contour>
    <contour>
      <point x="137" y="540" type="line"/>
      <point x="126" y="494"/>
      <point x="116" y="457"/>
      <point x="105" y="411" type="curve" smooth="yes"/>
      <point x="104" y="408"/>
      <point x="104" y="405"/>
      <point x="106" y="403" type="curve" smooth="yes"/>
      <point x="107" y="401"/>
      <point x="110" y="400"/>
      <point x="113" y="400" type="curve" smooth="yes"/>
      <point x="532" y="400" type="line"/>
      <point x="544" y="446"/>
      <point x="553" y="483"/>
      <point x="564" y="529" type="curve" smooth="yes"/>
      <point x="566" y="535"/>
      <point x="562" y="540"/>
      <point x="556" y="540" type="curve" smooth="yes"/>
    </contour>
  </outline>
</glyph>
<glyph name="z" format="2">
  <advance width="600"/>
  <unicode hex="007A"/>
  <outline>
    <contour>
      <point x="153.7586767582088" y="540.0" type="line"/>
      <point x="143.17230686391304" y="497.7510062276788"/>
      <point x="132.58593696961728" y="456.2166082231274"/>
      <point x="121.51836844376263" y="412.0472056429734" type="curve" smooth="yes"/>
      <point x="120.75678635759462" y="409.0472056429734"/>
      <point x="120.99520427142659" y="406.0472056429734"/>
      <point x="122.4874828806479" y="404.0472056429734" type="curve" smooth="yes"/>
      <point x="123.97976148986925" y="402.0472056429734"/>
      <point x="126.72590079447988" y="401.0472056429734"/>
      <point x="129.72590079447988" y="401.0472056429734" type="curve" smooth="yes"/>
      <point x="413.7259007944799" y="401.0472056429734" type="line" smooth="yes"/>
      <point x="469.7259007944799" y="401.0472056429734"/>
      <point x="526.4874828806479" y="404.28540423223006"/>
      <point x="582.53381122532" y="415.3326098752035" type="curve"/>
      <point x="610.966209108926" y="529.0" type="line" smooth="yes"/>
      <point x="611.727791195094" y="532.0"/>
      <point x="611.489373281262" y="535.0"/>
      <point x="609.9970946720407" y="537.0" type="curve" smooth="yes"/>
      <point x="608.5048160628194" y="539.0"/>
      <point x="605.7586767582088" y="540.0"/>
      <point x="602.7586767582088" y="540.0" type="curve" smooth="yes"/>
    </contour>
    <contour>
      <point x="427.2316874660879" y="446.0" type="curve"/>
      <point x="300.61584373304396" y="338.71459576776994"/>
      <point x="174.5236028214867" y="231.9527943570266"/>
      <point x="47.90775908844276" y="124.66739012479653" type="curve"/>
      <point x="25.81551817688551" y="30.950623982637005"/>
      <point x="168.1459576776994" y="59.28540423223006"/>
      <point x="222.09658166033643" y="97.0" type="curve" smooth="yes"/>
      <point x="356.18882257189364" y="215.0"/>
      <point x="582.0147350430542" y="413.29853569069735"/>
      <point x="582.53381122532" y="415.3326098752035" type="curve"/>
      <point x="587.2372857760058" y="434.9256646771568"/>
      <point x="530.7552902875746" y="446.0"/>
    </contour>
    <contour>
      <point x="476.67390124796526" y="0.0" type="line"/>
      <point x="487.7414697738199" y="44.16940258015403"/>
      <point x="497.8466410365568" y="83.78339177687256"/>
      <point x="508.9142095624115" y="127.95279435702659" type="curve"/>
      <point x="510.43737373474744" y="133.9527943570266"/>
      <point x="506.70667721169417" y="138.9527943570266"/>
      <point x="500.70667721169417" y="138.9527943570266" type="curve" smooth="yes"/>
      <point x="220.7066772116942" y="138.9527943570266" type="line" smooth="yes"/>
      <point x="164.7066772116942" y="138.9527943570266"/>
      <point x="106.7066772116942" y="138.0"/>
      <point x="47.898766780854075" y="124.66739012479653" type="curve"/>
      <point x="19.466368897248017" y="11.0" type="line" smooth="yes"/>
      <point x="18.704786811079998" y="8.0"/>
      <point x="18.94320472491198" y="5.0"/>
      <point x="20.435483334133295" y="3.0" type="curve" smooth="yes"/>
      <point x="21.927761943354625" y="1.0"/>
      <point x="24.673901247965276" y="0.0"/>
      <point x="27.673901247965276" y="0.0" type="curve" smooth="yes"/>
    </contour>
  </outline>
</glyph>
<glyph name="a.italic" format="2">
  <advance width="600"/>
  <outline>
    <contour>
      <point x="282" y="552" type="curve" smooth="yes"/>
      <point x="189" y="552.0"/>
      <point x="112" y="504"/>
      <point x="74" y="357" type="curve" smooth="yes"/>
      <point x="30" y="182" type="line" smooth="yes"/>
      <point x="12" y="111"/>
      <point x="54.68282085546133" y="61.0"/>
      <point x="127.25424942688991" y="61.0" type="curve" smooth="yes"/>
      <point x="160.2542494268899" y="61.0"/>
      <point x="186" y="85.0"/>
      <point x="192" y="110.0" type="curve"/>
      <point x="175" y="136"/>
      <point x="181" y="159"/>
      <point x="195" y="217" type="curve" smooth="yes"/>
      <point x="223" y="330" type="line" smooth="yes"/>
      <point x="235" y="380"/>
      <point x="262" y="397.0"/>
      <point x="298" y="397.0" type="curve" smooth="yes"/>
      <point x="339" y="397.0"/>
      <point x="377.27542689860354" y="365.0"/>
      <point x="395.5224314009598" y="322.0" type="curve"/>
      <point x="410.93520019315525" y="330.04115232531717"/>
      <point x="426.02452128303685" y="352.0"/>
      <point x="432.0261931886984" y="376.0" type="curve" smooth="yes"/>
      <point x="449.2809999174756" y="445.0"/>
      <point x="399" y="552.0"/>
    </contour>
    <contour>
      <point x="2" y="69.0"/>
      <point x="45" y="-10"/>
      <point x="162" y="-10.0" type="curve" smooth="yes"/>
      <point x="225.0" y="-10.0"/>
      <point x="284" y="21"/>
      <point x="341" y="81" type="curve" smooth="yes"/>
      <point x="390" y="133"/>
      <point x="409" y="204.0"/>
      <point x="387" y="237.0" type="curve"/>
      <point x="326" y="172.0"/>
      <point x="286" y="146.0"/>
      <point x="237" y="146" type="curve" smooth="yes"/>
      <point x="197" y="146.0"/>
      <point x="183" y="166"/>
      <point x="195" y="217.0" type="curve"/>
      <point x="55" y="233"/>
      <point x="40" y="221"/>
      <point x="30" y="182.0" type="curve" smooth="yes"/>
    </contour>
    <contour>
      <point x="595.0376178773861" y="540.0" type="line"/>
      <point x="547.0376178773861" y="540.0"/>
      <point x="499.0376178773861" y="540.0"/>
      <point x="451.0376178773861" y="540.0" type="curve" smooth="yes"/>
      <point x="445.0376178773861" y="540.0"/>
      <point x="439" y="535"/>
      <point x="437.28685158729115" y="529.0" type="curve" smooth="yes"/>
      <point x="342" y="152.0" type="line" smooth="yes"/>
      <point x="326" y="90"/>
      <point x="370.001393254718" y="20.0"/>
      <point x="465.001393254718" y="20.0" type="curve"/>
      <point x="473.50376178773865" y="54.0"/>
      <point x="482.2561999834951" y="89.0"/>
      <point x="490.75856851651577" y="123.0" type="curve"/>
    </contour>
    <contour>
      <point x="543.0091954811388" y="132.0" type="line"/>
      <point x="523.0091954811388" y="132.0" type="line"/>
      <point x="520.0091954811388" y="132.0"/>
      <point x="518.0091954811388" y="132.0"/>
      <point x="514.0091954811388" y="132.0" type="curve" smooth="yes"/>
      <point x="501.0091954811388" y="132.0"/>
      <point x="494.7596831202901" y="139.0"/>
      <point x="498.51072806132856" y="154.0" type="curve"/>
      <point x="359" y="174.0"/>
      <point x="346" y="166.0"/>
      <point x="342" y="152.0" type="curve" smooth="yes"/>
      <point x="325" y="84.0"/>
      <point x="346.499303372641" y="-10.0"/>
      <point x="447.49930337264095" y="-10.0" type="curve" smooth="yes"/>
      <point x="496.49930337264095" y="-10.0" type="line" smooth="yes"/>
      <point x="503.49930337264095" y="-10.0"/>
      <point x="508.4995820235846" y="-6.0"/>
      <point x="510.2500696627359" y="1.0" type="curve" smooth="yes"/>
    </contour>
  </outline>
</glyph>
<glyph name="f.italic" format="2">
  <advance width="600"/>
  <outline>
    <contour>
      <point x="383" y="603.0" type="curve"/>
      <point x="430" y="628.0"/>
      <point x="455.54388752361706" y="630.0"/>
      <point x="511.54388752361706" y="630.0" type="curve" smooth="yes"/>
      <point x="557.5438875236171" y="630.0"/>
      <point x="604" y="623.0"/>
      <point x="638" y="612.0" type="curve"/>
      <point x="658" y="612.0" type="line"/>
      <point x="668" y="653.0"/>
      <point x="675" y="677.0"/>
      <point x="686" y="722.0" type="curve"/>
      <point x="687" y="726.0"/>
      <point x="687" y="731"/>
      <point x="684" y="734.0" type="curve" smooth="yes"/>
      <point x="675" y="743"/>
      <point x="615" y="770.0"/>
      <point x="528" y="770.0" type="curve" smooth="yes"/>
      <point x="416" y="770.0"/>
      <point x="346" y="716.0"/>
    </contour>
    <contour>
      <point x="511.54388752361706" y="630.0" type="curve"/>
      <point x="580.0521077264533" y="748.0"/>
      <point x="555" y="770"/>
      <point x="528" y="770.0" type="curve" smooth="yes"/>
      <point x="367.0" y="770.0"/>
      <point x="302" y="691"/>
      <point x="275" y="585" type="curve" smooth="yes"/>
      <point x="107" y="-89" type="line"/>
      <point x="105" y="-97"/>
      <point x="109" y="-100.0"/>
      <point x="117" y="-100.0" type="curve" smooth="yes"/>
      <point x="161" y="-100.0"/>
      <point x="207.99303372640998" y="-100.0"/>
      <point x="253.99303372640998" y="-100.0" type="curve"/>
      <point x="262.2453325966947" y="-67.0"/>
      <point x="270.7477011297153" y="-33.0"/>
      <point x="279.0" y="0.0" type="curve"/>
      <point x="415.5380358538015" y="546.0" type="line" smooth="yes"/>
      <point x="432.54277291984266" y="614.0"/>
      <point x="451.54388752361706" y="630.0"/>
    </contour>
    <contour>
      <point x="130.03622462266804" y="520.0" type="line"/>
      <point x="118.53302013681665" y="474.0"/>
      <point x="109.28044261558836" y="437.0"/>
      <point x="97.77723812973693" y="391.0" type="curve"/>
      <point x="97.02702914152923" y="388.0"/>
      <point x="97.27682015332152" y="385.0"/>
      <point x="98.77668082784973" y="383.0" type="curve" smooth="yes"/>
      <point x="100.27654150237794" y="381.0"/>
      <point x="103.02647183964203" y="380.0"/>
      <point x="106.02647183964203" y="380.0" type="curve"/>
      <point x="555.026471839642" y="380.0" type="line"/>
      <point x="566.5296763254935" y="426.0"/>
      <point x="575.7822538467217" y="463.0"/>
      <point x="587.2854583325732" y="509.0" type="curve"/>
      <point x="588.7858763089886" y="515.0"/>
      <point x="585.036224622668" y="520.0"/>
      <point x="579.036224622668" y="520.0" type="curve"/>
    </contour>
  </outline>
</glyph>
<glyph name="g.italic" format="2">
  <advance width="600"/>
  <guideline x="-68.0" y="0" angle="75.96000000000001" identifier="jo5sRAsDvJ"/>
  <guideline x="-18.0" y="0" angle="75.96000000000001" identifier="YuiVlKfcxQ"/>
  <guideline x="32.0" y="0" angle="75.96000000000001" identifier="cU6qqtgkxC"/>
  <guideline x="82.0" y="0" angle="75.96000000000001" identifier="fGrYEaYaZ4"/>
  <guideline x="132.0" y="0" angle="75.96000000000001" identifier="bqxITzQCcp"/>
  <guideline x="182.0" y="0" angle="75.96000000000001" identifier="Xn64pz3Eo8"/>
  <guideline x="232.0" y="0" angle="75.96000000000001" identifier="QSm2Gbz8XN"/>
  <guideline x="282.0" y="0" angle="75.96000000000001" identifier="m4zOUYjepg"/>
  <guideline x="332.0" y="0" angle="75.96000000000001" identifier="2loOsOJeLn"/>
  <guideline x="382.0" y="0" angle="75.96000000000001" identifier="vyq3jfpj9z"/>
  <guideline x="432.0" y="0" angle="75.96000000000001" identifier="YaXXNur8vs"/>
  <guideline x="482.0" y="0" angle="75.96000000000001" identifier="TZZvfOIBng"/>
  <guideline x="532.0" y="0" angle="75.96000000000001" identifier="75iqrH6elZ"/>
  <guideline x="-68.0" y="-250" angle="0" identifier="VgS11hOynY"/>
  <guideline x="-68.0" y="-200" angle="0" identifier="mJPlpaItak"/>
  <guideline x="-68.0" y="-150" angle="0" identifier="KXTiHGc4pB"/>
  <guideline x="-68.0" y="-100" angle="0" identifier="qTrFVaqZBP"/>
  <guideline x="-68.0" y="-50" angle="0" identifier="roaPoYFjkN"/>
  <guideline x="-68.0" y="0" angle="0" identifier="5QhyRFzawc"/>
  <guideline x="-68.0" y="50" angle="0" identifier="PRaqMoybUs"/>
  <guideline x="-68.0" y="100" angle="0" identifier="kyagUDWraL"/>
  <guideline x="-68.0" y="150" angle="0" identifier="IOU803e1YT"/>
  <guideline x="-68.0" y="200" angle="0" identifier="V1FLoIR4cz"/>
  <guideline x="-68.0" y="250" angle="0" identifier="M1xnxQAgAR"/>
  <guideline x="-68.0" y="300" angle="0" identifier="sLypYDrePy"/>
  <guideline x="-68.0" y="350" angle="0" identifier="lImAHLVduN"/>
  <guideline x="-68.0" y="400" angle="0" identifier="WzIWo1u9aw"/>
  <guideline x="-68.0" y="450" angle="0" identifier="BM4Q0rdHj9"/>
  <guideline x="-68.0" y="500" angle="0" identifier="t7XJGd8rfz"/>
  <guideline x="-68.0" y="550" angle="0" identifier="xJg9XvJ5Cb"/>
  <guideline x="-68.0" y="600" angle="0" identifier="pC7Lk77yzx"/>
  <guideline x="-68.0" y="650" angle="0" identifier="yycJe18zdq"/>
  <guideline x="-68.0" y="700" angle="0" identifier="uHv59wxPP9"/>
  <outline>
    <contour>
      <point x="459" y="-6" type="curve" smooth="yes"/>
      <point x="572" y="440" type="line" smooth="yes"/>
      <point x="581" y="473"/>
      <point x="589" y="507"/>
      <point x="598" y="540" type="curve"/>
      <point x="549" y="540"/>
      <point x="508" y="540"/>
      <point x="459" y="540" type="curve" smooth="yes"/>
      <point x="456" y="540"/>
      <point x="453" y="539"/>
      <point x="450" y="537" type="curve" smooth="yes"/>
      <point x="447" y="535"/>
      <point x="445" y="532"/>
      <point x="445" y="529" type="curve" smooth="yes"/>
      <point x="318" y="27" type="line" smooth="yes"/>
      <point x="297" y="-55"/>
      <point x="271" y="-99"/>
      <point x="201" y="-131" type="curve"/>
      <point x="290" y="-209"/>
      <point x="430" y="-120"/>
    </contour>
    <contour>
      <point x="152" y="-105" type="curve" smooth="yes"/>
      <point x="105" y="-105"/>
      <point x="58" y="-98"/>
      <point x="12" y="-75" type="curve"/>
      <point x="-8" y="-75" type="line"/>
      <point x="-18" y="-117"/>
      <point x="-29" y="-159"/>
      <point x="-40" y="-201" type="curve" smooth="yes"/>
      <point x="-40" y="-204"/>
      <point x="-40" y="-207"/>
      <point x="-38" y="-209" type="curve" smooth="yes"/>
      <point x="-25" y="-227"/>
      <point x="42" y="-250"/>
      <point x="126" y="-250" type="curve" smooth="yes"/>
      <point x="308" y="-250"/>
      <point x="412" y="-183"/>
      <point x="459" y="-6" type="curve" smooth="yes"/>
      <point x="468" y="29"/>
      <point x="424" y="40"/>
      <point x="376" y="40" type="curve"/>
      <point x="313" y="-68"/>
      <point x="252" y="-105"/>
    </contour>
    <contour>
      <point x="285" y="552" type="curve" smooth="yes"/>
      <point x="192" y="552"/>
      <point x="114" y="504"/>
      <point x="77" y="357" type="curve" smooth="yes"/>
      <point x="36" y="193" type="line" smooth="yes"/>
      <point x="18" y="122"/>
      <point x="60" y="72"/>
      <point x="133" y="72" type="curve" smooth="yes"/>
      <point x="166" y="72"/>
      <point x="192" y="96"/>
      <point x="198" y="121" type="curve"/>
      <point x="181" y="147"/>
      <point x="187" y="170"/>
      <point x="201" y="228" type="curve" smooth="yes"/>
      <point x="226" y="330" type="line" smooth="yes"/>
      <point x="238" y="380"/>
      <point x="265" y="397"/>
      <point x="301" y="397" type="curve" smooth="yes"/>
      <point x="342" y="397"/>
      <point x="380" y="365"/>
      <point x="398" y="322" type="curve"/>
      <point x="413" y="330"/>
      <point x="429" y="352"/>
      <point x="435" y="376" type="curve" smooth="yes"/>
      <point x="452" y="445"/>
      <point x="402" y="552"/>
    </contour>
    <contour>
      <point x="8" y="80"/>
      <point x="52" y="10"/>
      <point x="169" y="10" type="curve" smooth="yes"/>
      <point x="232" y="10"/>
      <point x="290" y="32"/>
      <point x="347" y="92" type="curve" smooth="yes"/>
      <point x="396" y="144"/>
      <point x="415" y="215"/>
      <point x="393" y="248" type="curve"/>
      <point x="332" y="183"/>
      <point x="292" y="157"/>
      <point x="243" y="157" type="curve" smooth="yes"/>
      <point x="203" y="157"/>
      <point x="189" y="177"/>
      <point x="201" y="228" type="curve"/>
      <point x="61" y="244"/>
      <point x="46" y="232"/>
      <point x="36" y="193" type="curve" smooth="yes"/>
    </contour>
  </outline>
</glyph>
<glyph name="i.rotalic" format="2">
  <advance width="600"/>
  <outline>
    <contour>
      <point x="146" y="540.0" type="curve"/>
      <point x="146" y="494.0"/>
      <point x="146" y="448.0"/>
      <point x="146" y="402.0" type="curve" smooth="yes"/>
      <point x="146" y="396.0"/>
      <point x="151" y="391.0"/>
      <point x="157" y="391.0" type="curve" smooth="yes"/>
      <point x="215" y="391.0"/>
      <point x="287" y="391.0"/>
      <point x="345" y="391.0" type="curve"/>
      <point x="345" y="510.0"/>
      <point x="341" y="540.0"/>
      <point x="330" y="540.0" type="curve" smooth="yes"/>
      <point x="273" y="540.0"/>
      <point x="203" y="540.0"/>
    </contour>
    <contour>
      <point x="475.9484654420022" y="537.0" type="curve" smooth="yes"/>
      <point x="474.61494017362975" y="539.0"/>
      <point x="471.9481775394436" y="540.0"/>
      <point x="468.9481775394436" y="540.0" type="curve" smooth="yes"/>
      <point x="329.9481775394436" y="540.0" type="line"/>
      <point x="181.9907871181233" y="96.0" type="line" smooth="yes"/>
      <point x="173.99309033859248" y="72.0"/>
      <point x="241.32690350952356" y="67.0"/>
      <point x="322.32690350952356" y="67.0" type="curve"/>
      <point x="476.2825665154919" y="529.0" type="line"/>
      <point x="477.2822786129333" y="532.0"/>
      <point x="477.28199071037466" y="535.0"/>
    </contour>
    <contour>
      <point x="-7" y="135.0" type="line"/>
      <point x="-7" y="89.0"/>
      <point x="-7" y="57.0"/>
      <point x="-7" y="11.0" type="curve" smooth="yes"/>
      <point x="-7" y="8.0"/>
      <point x="-6" y="5.0"/>
      <point x="-4" y="3.0" type="curve" smooth="yes"/>
      <point x="-3" y="1.0"/>
      <point x="1" y="0.0"/>
      <point x="4" y="0.0" type="curve" smooth="yes"/>
      <point x="472" y="0.0" type="line"/>
      <point x="472" y="46.0"/>
      <point x="472" y="78.0"/>
      <point x="472" y="124.0" type="curve" smooth="yes"/>
      <point x="472" y="130"/>
      <point x="468" y="135.0"/>
      <point x="462" y="135.0" type="curve" smooth="yes"/>
    </contour>
    <contour>
      <point x="546" y="650.0" type="curve"/>
      <point x="546" y="789.0" type="line" smooth="yes"/>
      <point x="546" y="795.0"/>
      <point x="541" y="800.0"/>
      <point x="535" y="800.0" type="curve" smooth="yes"/>
      <point x="479" y="800.0"/>
      <point x="422" y="800.0"/>
      <point x="366" y="800.0" type="curve"/>
      <point x="365" y="661.0" type="line" smooth="yes"/>
      <point x="365" y="655.0"/>
      <point x="371" y="650.0"/>
      <point x="377" y="650.0" type="curve" smooth="yes"/>
      <point x="433" y="650.0"/>
      <point x="490" y="650.0"/>
    </contour>
  </outline>
</glyph>
<glyph name="l.extrarotalic" format="2">
  <advance width="600"/>
  <outline>
    <contour>
      <point x="215" y="750.0" type="curve"/>
      <point x="215" y="704.0"/>
      <point x="215" y="658.0"/>
      <point x="215" y="612.0" type="curve" smooth="yes"/>
      <point x="215" y="606.0"/>
      <point x="220" y="601.0"/>
      <point x="226" y="601.0" type="curve" smooth="yes"/>
      <point x="284" y="601.0"/>
      <point x="356" y="601.0"/>
      <point x="414" y="601.0" type="curve"/>
      <point x="414" y="720.0"/>
      <point x="410" y="750.0"/>
      <point x="399" y="750.0" type="curve" smooth="yes"/>
      <point x="342" y="750.0"/>
      <point x="272" y="750.0"/>
    </contour>
    <contour>
      <point x="502" y="748" type="curve" smooth="yes"/>
      <point x="500" y="750"/>
      <point x="497" y="750"/>
      <point x="494" y="750" type="curve" smooth="yes"/>
      <point x="399" y="750" type="line"/>
      <point x="182" y="96" type="line" smooth="yes"/>
      <point x="174" y="72"/>
      <point x="241" y="67"/>
      <point x="322" y="67" type="curve"/>
      <point x="504" y="616" type="line"/>
      <point x="504" y="740" type="line" smooth="yes"/>
      <point x="504" y="743"/>
      <point x="504" y="746"/>
    </contour>
    <contour>
      <point x="-7" y="135.0" type="line"/>
      <point x="-7" y="89.0"/>
      <point x="-7" y="57.0"/>
      <point x="-7" y="11.0" type="curve" smooth="yes"/>
      <point x="-7" y="8.0"/>
      <point x="-6" y="5.0"/>
      <point x="-4" y="3.0" type="curve" smooth="yes"/>
      <point x="-3" y="1.0"/>
      <point x="1" y="0"/>
      <point x="4" y="0.0" type="curve" smooth="yes"/>
      <point x="474" y="0.0" type="line"/>
      <point x="473" y="46.0"/>
      <point x="473" y="78.0"/>
      <point x="472" y="124.0" type="curve" smooth="yes"/>
      <point x="472" y="130.0"/>
      <point x="468" y="135.0"/>
      <point x="462" y="135.0" type="curve" smooth="yes"/>
    </contour>
  </outline>
</glyph>
<glyph name="l.italic" format="2">
  <advance width="600"/>
  <guideline x="330" y="67.0" angle="76.02213224240236" identifier="q66OkZwufZ"/>
  <guideline x="298" y="540.0" angle="256.076469395555" identifier="pR2yDcI1Q3"/>
  <outline>
    <contour>
      <point x="170" y="750.0" type="curve"/>
      <point x="159" y="707.0"/>
      <point x="148" y="662.0"/>
      <point x="137" y="619.0" type="curve"/>
      <point x="135" y="611.0"/>
      <point x="139.0" y="608.0"/>
      <point x="146" y="608.0" type="curve" smooth="yes"/>
      <point x="223" y="608"/>
      <point x="263" y="608.0"/>
      <point x="340" y="608.0" type="curve"/>
      <point x="373" y="740.0"/>
      <point x="370" y="750.0"/>
      <point x="350" y="750.0" type="curve" smooth="yes"/>
      <point x="291" y="750.0"/>
      <point x="229" y="750.0"/>
    </contour>
    <contour>
      <point x="496" y="748.0" type="curve" smooth="yes"/>
      <point x="494" y="750"/>
      <point x="492" y="750"/>
      <point x="489" y="750.0" type="curve" smooth="yes"/>
      <point x="350" y="750" type="line"/>
      <point x="209" y="181" type="line" smooth="yes"/>
      <point x="191" y="109"/>
      <point x="239" y="67.0"/>
      <point x="330" y="67.0" type="curve"/>
      <point x="338" y="101.0"/>
      <point x="348" y="139"/>
      <point x="356" y="172.0" type="curve" smooth="yes"/>
      <point x="497" y="739.0" type="line"/>
      <point x="498" y="743.0"/>
      <point x="498" y="746"/>
    </contour>
    <contour>
      <point x="519" y="142.0" type="curve"/>
      <point x="499" y="142.0" type="line"/>
      <point x="431" y="142.0"/>
      <point x="460" y="142.0"/>
      <point x="379" y="142.0" type="curve" smooth="yes"/>
      <point x="354" y="142.0"/>
      <point x="351" y="151.0"/>
      <point x="356" y="172.0" type="curve"/>
      <point x="228" y="200.0"/>
      <point x="213" y="199.0"/>
      <point x="209" y="181.0" type="curve"/>
      <point x="184.0" y="81.0"/>
      <point x="216.0" y="0"/>
      <point x="351" y="0.0" type="curve" smooth="yes"/>
      <point x="472.0" y="0.0" type="line"/>
      <point x="477.0" y="0.0"/>
      <point x="480.0" y="2.0"/>
      <point x="482" y="4.0" type="curve" smooth="yes"/>
      <point x="484" y="6"/>
      <point x="485" y="8.0"/>
      <point x="486" y="11.0" type="curve"/>
      <point x="497" y="54.0"/>
      <point x="508" y="99.0"/>
    </contour>
  </outline>
</glyph>
<glyph name="l.rotalic" format="2">
  <advance width="600"/>
  <outline>
    <contour>
      <point x="238" y="750.0" type="curve"/>
      <point x="238" y="706.0"/>
      <point x="238" y="670.0"/>
      <point x="238" y="626.0" type="curve" smooth="yes"/>
      <point x="238" y="620"/>
      <point x="242" y="615.0"/>
      <point x="248" y="615.0" type="curve" smooth="yes"/>
      <point x="306" y="615.0"/>
      <point x="377" y="615.0"/>
      <point x="435" y="615.0" type="curve"/>
      <point x="436" y="728.0"/>
      <point x="431" y="750.0"/>
      <point x="420" y="750.0" type="curve" smooth="yes"/>
      <point x="363" y="750.0"/>
      <point x="295" y="750.0"/>
    </contour>
    <contour>
      <point x="565.928312262897" y="747.0" type="curve" smooth="yes"/>
      <point x="564.5947869945246" y="749.0"/>
      <point x="561.9280243603383" y="750.0"/>
      <point x="558.9280243603383" y="750.0" type="curve" smooth="yes"/>
      <point x="419.9280243603383" y="750.0" type="line"/>
      <point x="201.9907871181233" y="96.0" type="line" smooth="yes"/>
      <point x="193.99309033859248" y="72.0"/>
      <point x="261.32690350952356" y="67.0"/>
      <point x="342.32690350952356" y="67.0" type="curve"/>
      <point x="566.2624133363867" y="739.0" type="line"/>
      <point x="567.262125433828" y="742.0"/>
      <point x="567.2618375312694" y="745.0"/>
    </contour>
    <contour>
      <point x="13" y="135.0" type="line"/>
      <point x="13" y="91.0"/>
      <point x="13" y="55.0"/>
      <point x="13" y="11.0" type="curve" smooth="yes"/>
      <point x="13" y="8"/>
      <point x="14" y="5.0"/>
      <point x="16" y="3.0" type="curve" smooth="yes"/>
      <point x="17" y="1.0"/>
      <point x="21" y="0"/>
      <point x="24" y="0.0" type="curve" smooth="yes"/>
      <point x="492" y="0.0" type="line"/>
      <point x="492" y="44.0"/>
      <point x="492" y="80.0"/>
      <point x="492" y="124.0" type="curve" smooth="yes"/>
      <point x="492" y="130"/>
      <point x="488" y="135"/>
      <point x="482" y="135.0" type="curve" smooth="yes"/>
    </contour>
  </outline>
</glyph>
<glyph name="n.kinked" format="2">
  <advance width="600"/>
  <outline>
    <contour>
      <point x="162" y="0" type="curve"/>
      <point x="296" y="529" type="line" smooth="yes"/>
      <point x="297" y="532"/>
      <point x="296" y="535"/>
      <point x="295" y="537" type="curve" smooth="yes"/>
      <point x="294" y="539"/>
      <point x="291" y="540"/>
      <point x="288" y="540" type="curve" smooth="yes"/>
      <point x="243" y="540"/>
      <point x="194" y="540"/>
      <point x="139" y="540" type="curve"/>
      <point x="132" y="512"/>
      <point x="123" y="478"/>
      <point x="114" y="442" type="curve" smooth="yes"/>
      <point x="5" y="11" type="line" smooth="yes"/>
      <point x="3" y="5"/>
      <point x="7" y="0"/>
      <point x="13" y="0" type="curve" smooth="yes"/>
      <point x="63" y="0"/>
      <point x="112" y="0"/>
    </contour>
    <contour>
      <point x="460" y="552" type="curve" smooth="yes"/>
      <point x="398" y="552"/>
      <point x="339" y="524"/>
      <point x="272" y="449" type="curve" smooth="yes"/>
      <point x="238" y="414"/>
      <point x="223" y="387"/>
      <point x="213" y="294" type="curve"/>
      <point x="286" y="372"/>
      <point x="337" y="404"/>
      <point x="376" y="404" type="curve" smooth="yes"/>
      <point x="412" y="404"/>
      <point x="439" y="386"/>
      <point x="443" y="330" type="curve"/>
      <point x="517" y="340"/>
      <point x="552" y="360"/>
      <point x="561" y="396" type="curve" smooth="yes"/>
      <point x="582" y="476"/>
      <point x="545" y="552"/>
    </contour>
    <contour>
      <point x="462" y="0" type="curve"/>
      <point x="469" y="28"/>
      <point x="478" y="62"/>
      <point x="487" y="98" type="curve" smooth="yes"/>
      <point x="561" y="396" type="line"/>
      <point x="584" y="474"/>
      <point x="482" y="484"/>
      <point x="395" y="430" type="curve"/>
      <point x="401" y="413"/>
      <point x="402" y="393"/>
      <point x="395" y="364" type="curve" smooth="yes"/>
      <point x="305" y="11" type="line" smooth="yes"/>
      <point x="303" y="5"/>
      <point x="307" y="0"/>
      <point x="313" y="0" type="curve" smooth="yes"/>
      <point x="363" y="0"/>
      <point x="412" y="0"/>
    </contour>
  </outline>
</glyph>
<glyph name="o.kinked" format="2">
  <advance width="600"/>
  <outline>
    <contour>
      <point x="357" y="552" type="curve" smooth="yes"/>
      <point x="207" y="552"/>
      <point x="108" y="473"/>
      <point x="66" y="311" type="curve" smooth="yes"/>
      <point x="49" y="248" type="line" smooth="yes"/>
      <point x="11" y="96"/>
      <point x="99" y="-12"/>
      <point x="242" y="-12" type="curve" smooth="yes"/>
      <point x="273" y="-12"/>
      <point x="292" y="25"/>
      <point x="303" y="106" type="curve"/>
      <point x="201" y="106"/>
      <point x="169" y="139"/>
      <point x="197" y="242" type="curve" smooth="yes"/>
      <point x="212" y="301" type="line" smooth="yes"/>
      <point x="230" y="373"/>
      <point x="279" y="417"/>
      <point x="342" y="417" type="curve" smooth="yes"/>
      <point x="390" y="417"/>
      <point x="414" y="405"/>
      <point x="440" y="374" type="curve"/>
      <point x="502" y="451"/>
      <point x="456" y="552"/>
    </contour>
    <contour>
      <point x="242" y="-12" type="curve" smooth="yes"/>
      <point x="392" y="-12"/>
      <point x="491" y="67"/>
      <point x="533" y="229" type="curve" smooth="yes"/>
      <point x="550" y="292" type="line" smooth="yes"/>
      <point x="588" y="444"/>
      <point x="499" y="552"/>
      <point x="357" y="552" type="curve" smooth="yes"/>
      <point x="327" y="552"/>
      <point x="310" y="517"/>
      <point x="296" y="434" type="curve"/>
      <point x="397" y="434"/>
      <point x="430" y="401"/>
      <point x="401" y="298" type="curve" smooth="yes"/>
      <point x="387" y="239" type="line" smooth="yes"/>
      <point x="368" y="168"/>
      <point x="320" y="123"/>
      <point x="256" y="123" type="curve" smooth="yes"/>
      <point x="208" y="123"/>
      <point x="184" y="135"/>
      <point x="159" y="166" type="curve"/>
      <point x="96" y="89"/>
      <point x="143" y="-12"/>
    </contour>
  </outline>
</glyph>
<glyph name="r.rotalic" format="2">
  <advance width="600"/>
  <outline>
    <contour>
      <point x="130" y="540.0" type="curve"/>
      <point x="130" y="494.0"/>
      <point x="130" y="462.0"/>
      <point x="130" y="416.0" type="curve" smooth="yes"/>
      <point x="130" y="410.0"/>
      <point x="135.0" y="405.0"/>
      <point x="141.0" y="405.0" type="curve" smooth="yes"/>
      <point x="196.0" y="405.0"/>
      <point x="269.9611331545827" y="405.0"/>
      <point x="324.9611331545827" y="405.0" type="curve"/>
      <point x="345.95508720085115" y="468.0"/>
      <point x="360.9481775394436" y="540.0"/>
      <point x="342.9481775394436" y="540.0" type="curve" smooth="yes"/>
      <point x="297.9481775394436" y="540.0"/>
      <point x="175" y="540.0"/>
    </contour>
    <contour>
      <point x="283.32661560696494" y="70.0" type="curve"/>
      <point x="391.62875949644484" y="395.0" type="line"/>
      <point x="395.9930940293609" y="408.0967741935484"/>
      <point x="370.9481775394436" y="540.0"/>
      <point x="342.9481775394436" y="540.0" type="curve" smooth="yes"/>
      <point x="332.9481775394436" y="540.0"/>
      <point x="320.6149401736298" y="539.0"/>
      <point x="287.6155159787471" y="533.0" type="curve"/>
      <point x="136.99222663091655" y="81.0" type="line" smooth="yes"/>
      <point x="134.99280243603383" y="75.0"/>
      <point x="138.3266156069649" y="70.0"/>
    </contour>
    <contour>
      <point x="20" y="135.0" type="line"/>
      <point x="20" y="89.0"/>
      <point x="20" y="57.0"/>
      <point x="20" y="11.0" type="curve" smooth="yes"/>
      <point x="20" y="8.0"/>
      <point x="21" y="5.0"/>
      <point x="23" y="3.0" type="curve" smooth="yes"/>
      <point x="25" y="1.0"/>
      <point x="28.0" y="0.0"/>
      <point x="31.0" y="0.0" type="curve" smooth="yes"/>
      <point x="450.0" y="0.0" type="line"/>
      <point x="450" y="46.0"/>
      <point x="450" y="78.0"/>
      <point x="450" y="124.0" type="curve" smooth="yes"/>
      <point x="450" y="130.0"/>
      <point x="445" y="135.0"/>
      <point x="439" y="135.0" type="curve" smooth="yes"/>
    </contour>
    <contour>
      <point x="332" y="340.0" type="curve"/>
      <point x="407" y="383.0"/>
      <point x="456" y="397.0"/>
      <point x="510" y="397.0" type="curve" smooth="yes"/>
      <point x="541" y="397.0"/>
      <point x="568" y="393.0"/>
      <point x="600.0" y="385.0" type="curve"/>
      <point x="620.0" y="385.0" type="line"/>
      <point x="620" y="427.0"/>
      <point x="620" y="529.0"/>
      <point x="621" y="539.0" type="curve" smooth="yes"/>
      <point x="620" y="546.0"/>
      <point x="616.0" y="550.0"/>
      <point x="609" y="550.0" type="curve" smooth="yes"/>
      <point x="591" y="550.0" type="line" smooth="yes"/>
      <point x="497" y="550"/>
      <point x="452.0" y="529"/>
      <point x="383" y="463.0" type="curve" smooth="yes"/>
      <point x="370" y="451"/>
      <point x="367" y="445"/>
    </contour>
  </outline>
</glyph>
<glyph name="t.rotalic" format="2">
  <advance width="600"/>
  <outline>
    <contour>
      <point x="326" y="723" type="curve"/>
      <point x="166" y="242" type="line" smooth="yes"/>
      <point x="143" y="173"/>
      <point x="144" y="115.0"/>
      <point x="173" y="72.0" type="curve"/>
      <point x="186" y="52.0"/>
      <point x="250.3303583402273" y="31.0"/>
      <point x="317.9936661437098" y="66.0" type="curve"/>
      <point x="287.6558223369576" y="113.0"/>
      <point x="291" y="167"/>
      <point x="315.6434425269358" y="242.0" type="curve" smooth="yes"/>
      <point x="457" y="667" type="line" smooth="yes"/>
      <point x="459" y="673"/>
      <point x="458" y="678"/>
      <point x="453" y="680" type="curve" smooth="yes"/>
      <point x="411" y="694"/>
      <point x="371" y="708"/>
    </contour>
    <contour>
      <point x="483" y="136.0" type="curve"/>
      <point x="463" y="136.0" type="line"/>
      <point x="408.943661971831" y="136.0"/>
      <point x="428.85915492957747" y="136.0"/>
      <point x="362" y="136.0" type="curve" smooth="yes"/>
      <point x="296" y="136.0"/>
      <point x="266" y="157"/>
      <point x="239" y="235.0" type="curve"/>
      <point x="175" y="189.0"/>
      <point x="149" y="108.0"/>
      <point x="173" y="72.0" type="curve" smooth="yes"/>
      <point x="200" y="31.0"/>
      <point x="252" y="0"/>
      <point x="318" y="0.0" type="curve" smooth="yes"/>
      <point x="472" y="0.0" type="line" smooth="yes"/>
      <point x="475.0" y="0.0"/>
      <point x="477" y="1.0"/>
      <point x="480" y="3.0" type="curve" smooth="yes"/>
      <point x="482" y="5.0"/>
      <point x="483" y="8.0"/>
      <point x="483" y="11.0" type="curve" smooth="yes"/>
      <point x="482" y="55.0"/>
      <point x="483" y="92.0"/>
    </contour>
    <contour>
      <point x="138" y="540.0" type="line"/>
      <point x="138" y="496.0"/>
      <point x="138" y="462.0"/>
      <point x="138" y="418.0" type="curve" smooth="yes"/>
      <point x="138" y="415.0"/>
      <point x="139" y="412.0"/>
      <point x="140" y="410.0" type="curve" smooth="yes"/>
      <point x="143" y="408.0"/>
      <point x="145" y="407"/>
      <point x="148" y="407.0" type="curve" smooth="yes"/>
      <point x="597" y="407.0" type="line"/>
      <point x="598" y="451.0"/>
      <point x="598" y="485.0"/>
      <point x="598" y="529.0" type="curve" smooth="yes"/>
      <point x="598" y="535.0"/>
      <point x="593.0" y="540.0"/>
      <point x="587" y="540.0" type="curve" smooth="yes"/>
    </contour>
  </outline>
</glyph>
